<?xml version="1.0" encoding="UTF-8"?>
<svg width="829px" height="365px" viewBox="0 0 829 365" version="1.1" xmlns="http://www.w3.org/2000/svg" xmlns:xlink="http://www.w3.org/1999/xlink">
    <title>Group 5</title>
    <g id="Page-1" stroke="none" stroke-width="1" fill="none" fill-rule="evenodd">
        <g id="Group-5" fill-rule="nonzero">
            <g id="undraw_on_the_way_re_swjt">
                <path d="M246.62988,300.38903 C243.77979,322.71903 233.2998,343.14903 222.11963,362.82903 C221.75,363.49903 221.36963,364.15903 220.97998,364.82903 L104.77979,364.82903 C102.42969,364.21903 100.10986,363.54903 97.79979,362.82903 C84.6753312,358.833145 72.2848616,352.737524 61.10985,344.77903 C18.35985,313.97903 1.90966,255.77903 9.33985,203.62903 C13.95997,171.22903 28.1797,138.14903 55.86964,120.69903 C70.48976,111.46903 89.26954,108.46903 106.09964,111.89903 C106.54007,111.97903 106.98001,112.07903 107.42972,112.16903 C121.90972,115.42903 134.8096,123.52903 142.14993,136.57903 C155.34964,160.02903 147.48978,189.07903 141.00003,215.17903 C134.52982,241.27903 131.01956,272.51903 149.79983,291.76903 C143.59964,273.51903 149.71976,251.74903 164.52983,239.40903 C175.71977,230.09903 191.29983,226.60903 205.50983,229.49903 C206.86969,229.78903 208.21002,230.11903 209.52983,230.51903 C212.720027,231.453286 215.795771,232.741286 218.69975,234.35903 C240.84961,246.72906 249.81982,275.21905 246.62988,300.38903 Z" id="Path" fill="#F2F2F2"></path>
                <path d="M177.73,362.82904 C180.94973,363.57904 184.17971,364.23904 187.42971,364.82904 L169.85986,364.82904 C167.55957,364.20904 165.26953,363.54904 163,362.82904 C158.009773,361.26904 153.096363,359.47904 148.25977,357.45904 C128.85986,349.31904 110.98977,337.09904 97.46977,320.83904 C90.857604,312.961242 85.4581334,304.140759 81.44977,294.66904 C77.1032624,283.963598 74.340968,272.681585 73.25006,261.17904 C70.79986,237.57904 73.29986,213.32904 77.96979,190.14904 C82.789112,166.124201 90.5684986,142.789551 101.12994,120.67904 C102.39994,118.02908 103.713253,115.395747 105.06988,112.77904 C105.258979,112.34253 105.639016,112.017772 106.09967,111.89904 C106.56129,111.809561 107.039558,111.906647 107.42975,112.16904 C108.402321,112.727025 108.767235,113.949149 108.25983,114.94904 C97.3704317,136.184871 89.1159369,158.671412 83.67975,181.90904 C78.35992,204.57904 75.3399,228.29904 76.36969,251.60904 C77.34969,273.38904 83.0401,294.80904 95.94977,312.61898 C107.73977,328.87898 124.01959,341.69898 142.02985,350.42898 C153.429281,355.883063 165.40407,360.042376 177.73,362.82904 L177.73,362.82904 Z" id="Path" fill="#FFFFFF"></path>
                <path d="M216.29,364.82904 L211.10982,364.82904 C210.52975,364.16904 209.96969,363.49904 209.41988,362.82904 C197.620879,348.493089 189.627684,331.413134 186.17965,313.16904 C181.992184,290.401406 185.249701,266.890479 195.46965,246.11904 C198.320961,240.294519 201.680656,234.732951 205.50965,229.49904 C206.86951,229.78904 208.20984,230.11904 209.52965,230.51904 C199.4582,243.86292 192.68398,259.398739 189.75965,275.85904 C184.476374,307.096187 193.566231,339.049854 214.5,362.82904 C215.07959,363.49902 215.67969,364.16906 216.29,364.82904 Z" id="Path" fill="#FFFFFF"></path>
                <path d="M682.92938,347.82218 C683.68157,353.71548 686.44743,359.10733 689.39808,364.30124 C689.49563,364.47806 689.59602,364.65224 689.69886,364.82907 L720.36621,364.82907 C720.98645,364.66807 721.59869,364.49125 722.20836,364.30124 C725.672146,363.24665 728.942218,361.637903 731.89151,359.53751 C743.17401,351.40883 747.51551,336.04879 745.55451,322.28544 C744.33518,313.7345 740.58233,305.00407 733.27445,300.3987 C729.306091,297.981777 724.571495,297.152304 720.01784,298.07622 C719.9016,298.09734 719.78549,298.12372 719.66684,298.14748 C715.832926,298.888622 712.498496,301.232886 710.50354,304.58972 C707.01989,310.77861 709.09425,318.44543 710.80702,325.33372 C712.51463,332.222 713.44102,340.4668 708.48459,345.54723 C709.963667,341.221171 708.992156,336.433618 705.943784,333.02629 C702.895412,329.618961 698.245078,328.122673 693.78171,329.11303 C693.42282,329.18958 693.06908,329.27666 692.72071,329.38224 C691.878759,329.628811 691.067014,329.968739 690.3006,330.39569 C684.4549,333.66033 682.08749,341.17936 682.92938,347.82218 Z" id="Path" fill="#F2F2F2"></path>
                <path d="M701.11332,364.30124 C700.26358,364.49918 699.41113,364.67335 698.55339,364.82907 L703.19039,364.82907 C703.79748,364.66545 704.40186,364.49125 705.00083,364.30124 C706.31785,363.88952 707.61459,363.417107 708.89105,362.884 C714.068467,360.781981 718.665466,357.467509 722.29547,353.21931 C724.04055,351.140216 725.465578,348.81233 726.52347,346.31257 C727.670575,343.4872 728.399577,340.509665 728.68747,337.47393 C729.213709,331.198113 728.793814,324.878846 727.44185,318.72783 C726.169945,312.387229 724.116822,306.228783 721.32946,300.39341 C720.99428,299.694037 720.647673,298.999057 720.28964,298.30847 C720.239735,298.193265 720.139436,298.107555 720.01786,298.07622 C719.89604,298.052613 719.769829,298.078237 719.66686,298.14748 C719.410182,298.294742 719.313872,298.617279 719.44778,298.88117 C722.321698,304.485703 724.500212,310.420323 725.93492,316.55317 C727.412538,322.568434 728.061624,328.757337 727.86418,334.94828 C727.758626,340.706229 725.961506,346.305902 722.69663,351.04992 C719.521596,355.322288 715.345363,358.749006 710.53526,361.02867 C707.526735,362.468094 704.366363,363.565801 701.11332,364.30124 L701.11332,364.30124 Z" id="Path" fill="#FFFFFF"></path>
                <path d="M690.93662,364.82907 L692.30376,364.82907 C692.45685,364.65489 692.60466,364.47807 692.74976,364.30124 C695.863728,360.517719 697.973278,356.010008 698.88328,351.19506 C699.988426,345.186261 699.128705,338.981295 696.43147,333.49933 C695.678952,331.96213 694.792263,330.494328 693.78172,329.113 C693.42283,329.18955 693.06909,329.27663 692.72072,329.38221 C695.378768,332.903901 697.166611,337.004091 697.93839,341.34827 C699.332753,349.592328 696.933785,358.025493 691.40899,364.30127 C691.25608,364.47806 691.0977,364.65489 690.93662,364.82907 Z" id="Path" fill="#FFFFFF"></path>
                <path d="M406.50977,212.50824 L310.52877,212.50824 L309.51123,182.99754 C309.422131,180.408604 310.470582,177.910363 312.380607,176.160412 C314.290632,174.41046 316.870869,173.584123 319.44214,173.89891 L375.29663,180.73827 L375.30347,180.73827 C392.543821,180.784719 406.498477,194.76786 406.50977,212.00827 L406.50977,212.50824 Z" id="Path" fill="#FFFFFF"></path>
                <path d="M363.73082,107.82904 L296.78871,107.82904 C294.990675,107.82904 293.266145,108.54261 291.994742,109.814012 C290.72334,111.085415 290.00977,112.809945 290.00977,114.60798 L290.00977,181.55009 C290.00977,183.348126 290.723339,185.072657 291.994742,186.344061 C293.266144,187.615465 294.990674,188.32904 296.78871,188.32904 L363.73082,188.32904 C365.528865,188.32904 367.25341,187.615485 368.524824,186.34408 C369.796239,185.072674 370.50982,183.348135 370.50982,181.55009 L370.50982,114.60798 C370.50982,112.809936 369.796239,111.085398 368.524824,109.813994 C367.253409,108.54259 365.528864,107.82904 363.73082,107.82904 Z" id="Path" fill="#CCCCCC"></path>
                <path d="M348.65445,157.8858 L317.04817,164.04072 C313.14457,164.796369 309.365954,162.249552 308.60158,158.34765 L306.172,145.87148 C305.416351,141.967882 307.96317,138.189269 311.86507,137.4249 L343.47135,131.26999 C347.374952,130.514335 351.153571,133.061155 351.91794,136.96306 L354.34751,149.43922 C355.103165,153.342816 352.556349,157.121431 348.65445,157.8858 Z" id="Path" fill="#3F3D56"></path>
                <path d="M370.50977,114.60798 L370.50977,123.50535 L290.00977,123.50535 L290.00977,114.60798 C290.00977,112.809945 290.72334,111.085415 291.994742,109.814012 C293.266145,108.54261 294.990675,107.828557 296.78871,107.82904 L363.73082,107.82904 C365.528856,107.828557 367.253387,108.542609 368.524791,109.814012 C369.796195,111.085414 370.50977,112.809944 370.50977,114.60798 Z" id="Path" fill="#B3B3B3"></path>
                <path d="M531.26052,126.29159 C530.319733,123.254735 528.082124,120.790569 525.149794,119.562154 C522.217463,118.333738 518.891628,118.46726 516.06721,119.92679 L423.97066,86.88406 L419.91433,109.89132 L511.71773,135.13672 C514.546244,139.821891 520.431966,141.651049 525.417843,139.394425 C530.40372,137.137801 532.9138,131.508676 531.26052,126.29159 L531.26052,126.29159 Z" id="Path" fill="#FFB8B8"></path>
                <path d="M531.26052,126.29159 C530.319733,123.254735 528.082124,120.790569 525.149794,119.562154 C522.217463,118.333738 518.891628,118.46726 516.06721,119.92679 L423.97066,86.88406 L419.91433,109.89132 L511.71773,135.13672 C514.546244,139.821891 520.431966,141.651049 525.417843,139.394425 C530.40372,137.137801 532.9138,131.508676 531.26052,126.29159 L531.26052,126.29159 Z" id="Path" fill="#000000" opacity="0.2"></path>
                <path d="M440.31732,91.07642 L431.62058,113.79665 C431.119849,115.104739 430.074544,116.130091 428.757049,116.605523 C427.439555,117.080954 425.980367,116.959372 424.75972,116.27246 L403.62348,104.37619 C396.752718,101.700704 393.342294,93.9701532 395.998279,87.0918298 C398.654265,80.2135065 406.37511,76.781167 413.26094,79.41763 L436.86314,84.65227 C438.230475,84.9559642 439.397902,85.8397826 440.061212,87.0734178 C440.724521,88.3070529 440.818011,89.7683133 440.31732,91.07642 L440.31732,91.07642 Z" id="Path" fill="#FFFFFF"></path>
                <path d="M538.50977,147.32904 L505.50977,162.32904 L509.84236,178.64004 C518.208931,210.137716 520.429309,242.952244 516.38212,275.28989 L516.38212,275.28989 L540.50977,280.32904 L560.50977,229.32904 L553.50977,171.32904 L538.50977,147.32904 Z" id="Path" fill="#FFFFFF"></path>
                <path d="M603.25977,222.82904 C581.57764,222.82904 563.9082,238.59104 563.05077,258.32904 L643.46877,258.32904 C642.61133,238.591 624.94189,222.82904 603.25977,222.82904 Z" id="Path" fill="#3F3D56"></path>
                <path d="M586.38135,226.23059 C585.25293,137.1322 534.50977,145.32904 534.50977,145.32904 C534.50977,145.32904 535.45898,173.06237 535.91504,173.92486 C568.25049,235.10443 514.88477,306.82867 446.95504,293.63372 C445.67428,293.38494 444.44381,293.13256 443.26363,292.87658 C425.399645,289.146952 413.508495,272.177914 416.10035,254.11374 C422.79193,200.37812 389.50973,201.32904 389.50973,201.32904 L340.84326,201.32904 L315.56991,178.58314 C313.758523,176.952898 311.256641,176.32694 308.890971,176.912103 C306.525301,177.497267 304.603738,179.217391 303.76123,181.50409 L300.50977,190.32909 C300.50977,190.32909 252.50977,195.32909 256.50977,242.32909 L271.34961,242.32909 C271.313779,243.664503 271.367285,245.000817 271.50977,246.32909 L382.26069,245.42865 C388.75256,245.37587 394.48294,250.63633 394.50969,257.12836 C394.523108,260.321906 393.236381,263.383415 390.945554,265.608505 C388.654726,267.833596 385.557063,269.030667 382.36526,268.9243 L364.5098,268.32909 C359.0098,292.82909 372.5098,309.32909 387.3848,319.70409 C401.389796,329.330764 418.008297,334.43487 435.00246,334.330702 L483.5098,334.330702 C546.5098,334.330702 557.5098,281.32909 557.5098,281.32909 C590.50977,267.32904 586.38135,226.23059 586.38135,226.23059 Z" id="Path" fill="#3F3D56"></path>
                <circle id="Oval" fill="#3F3D56" cx="600.25977" cy="307.07904" r="56.25"></circle>
                <circle id="Oval" fill="#FFFFFF" cx="600.25977" cy="307.07904" r="13.78676"></circle>
                <circle id="Oval" fill="#3F3D56" cx="316.25977" cy="298.57904" r="64.75"></circle>
                <circle id="Oval" fill="#FFFFFF" cx="316.25977" cy="298.57904" r="15.8701"></circle>
                <path d="M505.60352,166.76117 L493.73,134.51165 C492.480269,131.117194 492.630193,127.365308 494.146789,124.081392 C495.663385,120.797477 498.422418,118.250545 501.81691,117.00091 L535.85691,104.46966 C541.829457,102.270308 548.431076,102.533646 554.209461,105.201741 C559.987845,107.869837 564.46965,112.72413 566.66891,118.69671 C567.650781,121.351077 568.152272,124.159044 568.149918,126.98919 C568.124129,134.266686 564.823109,141.145809 559.16212,145.71919 C557.142887,147.339087 554.873033,148.618902 552.4419,149.50826 L505.60352,166.76117 Z" id="Path" fill="#3F3D56"></path>
                <path d="M567.6499,126.98901 C567.644271,134.119378 564.408294,140.863227 558.84961,145.32901 C550.327474,143.081121 543.22568,137.198101 539.431224,129.243109 C535.636768,121.288117 535.53388,112.066684 539.1499,104.02901 C546.096962,102.518268 553.354521,104.232987 558.890861,108.69314 C564.4272,113.153293 567.64737,119.879579 567.6499,126.98901 L567.6499,126.98901 Z" id="Path" fill="#FFFFFF"></path>
                <ellipse id="Oval" fill="#FFFFFF" cx="265.00977" cy="231.82904" rx="14" ry="17"></ellipse>
                <polygon id="Path" fill="#FFB8B8" points="450.071 292.00501 462.331 292.00501 468.164 260.20801 450.069 260.20901"></polygon>
                <path d="M446.94363,288.00248 L471.08743,288.00148 L471.08843,288.00148 C475.16917,288.00148 479.08281,289.622366 481.968352,292.507861 C484.853894,295.393357 486.47491,299.30697 486.47491,303.38771 L486.47491,303.88771 L446.94439,303.88917 L446.94363,288.00248 Z" id="Path" fill="#2F2E41"></path>
                <path d="M464.30136,278.95454 C464.15854,278.95454 464.015147,278.947703 463.87118,278.93403 L446.90463,277.69868 C445.513988,277.569652 444.262079,276.80224 443.516109,275.621536 C442.770138,274.440831 442.614672,272.980685 443.09531,271.66938 L465.80185,220.65474 C466.129814,219.735276 466.058652,218.720596 465.60556,217.85591 C465.153489,216.980579 464.348846,216.340204 463.39438,216.09614 C452.71713,213.30514 425.32238,205.87349 401.608,197.17814 C391.44809,193.45256 385.04916,188.06877 382.5892,181.17619 C379.34604,172.08928 384.14389,163.80219 384.3497,163.45451 L384.51059,163.18205 L406.82529,165.21037 L431.01645,167.26799 L484.02988,195.69572 C493.241625,200.677309 497.080121,211.900459 492.84848,221.4799 L468.40756,276.28754 C467.685205,277.909083 466.076521,278.95454 464.30136,278.95454 L464.30136,278.95454 Z" id="Path" fill="#2F2E41"></path>
                <circle id="Oval" fill="#FFB8B8" cx="410.70532" cy="39.72021" r="24.56103"></circle>
                <polygon id="Path" fill="#FFB8B8" points="443.071 295.00501 455.331 295.00501 461.164 263.20801 443.069 263.20901"></polygon>
                <path d="M439.94363,291.00248 L464.08743,291.00148 L464.08843,291.00148 C468.16917,291.00148 472.08281,292.622366 474.968352,295.507861 C477.853894,298.393357 479.47491,302.30697 479.47491,306.38771 L479.47491,306.88771 L439.94439,306.88917 L439.94363,291.00248 Z" id="Path" fill="#2F2E41"></path>
                <path d="M457.30136,281.95454 C457.15854,281.95454 457.015147,281.947703 456.87118,281.93403 L439.90463,280.69868 C438.513988,280.569652 437.262079,279.80224 436.516109,278.621536 C435.770138,277.440831 435.614672,275.980685 436.09531,274.66938 L458.80185,223.65474 C459.129814,222.735276 459.058652,221.720596 458.60556,220.85591 C458.153489,219.980579 457.348846,219.340204 456.39438,219.09614 C445.71713,216.30514 418.32238,208.87349 394.608,200.17814 C384.44809,196.45256 378.04916,191.06877 375.5892,184.17619 C372.34604,175.08928 377.14389,166.80219 377.3497,166.45451 L377.51059,166.18205 L399.82529,168.21037 L424.01645,170.26799 L477.02988,198.69572 C486.241625,203.677309 490.080121,214.900459 485.84848,224.4799 L461.40756,279.28754 C460.685205,280.909083 459.076521,281.95454 457.30136,281.95454 L457.30136,281.95454 Z" id="Path" fill="#2F2E41"></path>
                <path d="M418.28012,78.2084 L392.28012,69.2084 C392.28012,69.2084 375.95812,81.7484 383.79912,112.85696 C387.892598,128.910154 386.70023,145.855445 380.39903,161.17721 C379.640335,163.072907 378.76572,164.920127 377.78014,166.7084 C377.78014,166.7084 406.78014,201.7084 433.78014,175.7084 L423.28014,125.2084 C423.28014,125.2084 439.78012,91.7084 418.28012,78.2084 Z" id="Path" fill="#FFFFFF"></path>
                <path d="M413.75474,65.11654 C410.25912,59.88423 407.50039,52.62898 411.34909,47.65063 C415.14816,42.73647 422.64124,43.46045 428.45963,41.28597 C436.56363,38.2573 441.26372,28.73667 439.79787,20.21033 C438.33202,11.68399 431.48756,4.61591003 423.33382,1.72388003 C415.18008,-1.16814997 405.98543,-0.22759997 398.0007,3.10275003 C388.17139,7.20245003 379.73955,15.13303 376.20384,25.179 C372.66813,35.22497 374.55824,47.28708 381.89313,55.00863 C389.75694,63.28697 402.09869,65.49317 413.51589,65.3593" id="Path" fill="#2F2E41"></path>
                <path d="M390.90785,20.48396 C386.50301,24.06983 379.78258,22.47714 375.05425,19.33009 C370.32592,16.18304 366.48918,11.70184 361.37325,9.23443003 C352.35403,4.88448003 341.44946,7.77618003 332.67154,12.59452 C323.89362,17.41286 316.11238,24.06952 306.8403,27.85069 C297.56822,31.63186 285.73637,31.81877 278.71546,24.67908 C275.175594,34.9350722 278.448986,46.309484 286.898905,53.1149892 C295.348823,59.9204944 307.159535,60.694714 316.42556,55.05053 C326.58496,48.86214 332.19661,35.88683 343.59148,32.4712 C349.89698,30.58112 356.6678,32.10343 363.04065,33.75226 C369.4135,35.40109 376.05848,37.18267 382.48977,35.779 C388.92106,34.37533 394.93677,28.59588 394.11857,22.06425 L390.90785,20.48396 Z" id="Path" fill="#2F2E41"></path>
                <path d="M530.03838,125.2912 C528.730092,122.393622 526.205547,120.224363 523.144056,119.367131 C520.082564,118.509899 516.798615,119.052753 514.17586,120.84962 L418.7061,99.42246 L417.51946,122.7544 L511.73624,136.47998 C515.121206,140.780375 521.18765,141.869369 525.857009,139.014816 C530.526368,136.160263 532.322733,130.26444 530.03838,125.2912 Z" id="Path" fill="#FFB8B8"></path>
                <path d="M435.44513,101.56589 L429.61813,125.18555 C429.282622,126.545433 428.371808,127.691931 427.123032,128.326286 C425.874255,128.96064 424.411206,129.020019 423.11513,128.48895 L400.67261,119.29142 C393.519297,117.488337 389.175813,110.234707 390.963746,103.077593 C392.751679,95.9204783 399.996096,91.5616452 407.15698,93.33442 L431.2247,95.61697 C432.619058,95.7496404 433.886612,96.4826659 434.697063,97.6250339 C435.507513,98.7674018 435.780585,100.205961 435.44512,101.56585 L435.44513,101.56589 Z" id="Path" fill="#FFFFFF"></path>
                <circle id="Oval" fill="#FFFFFF" cx="519.00977" cy="136.82904" r="7"></circle>
                <path d="M829,363.82904 C829,364.380623 828.551583,364.827349 828,364.82904 L1,364.82904 C0.44771525,364.82904 0,364.381325 0,363.82904 C0,363.276755 0.44771525,362.82904 1,362.82904 L828,362.82904 C828.551583,362.830731 829,363.277457 829,363.82904 Z" id="Path" fill="#3F3D56"></path>
            </g>
            <g id="livroux_logo" transform="translate(329.500000, 148.000000) rotate(-12.000000) translate(-329.500000, -148.000000) translate(308.000000, 137.000000)" fill="#FFFFFF">
                <g id="Group" transform="translate(21.500000, 11.000000) scale(-1, 1) rotate(-180.000000) translate(-21.500000, -11.000000) ">
                    <path d="M8.63563977,21.9177982 C8.43694364,21.8139644 8.28919523,21.6697508 8.17711023,21.4736203 L8.09049909,21.312101 L4.04524955,21.312101 C1.81883386,21.312101 0,21.2947954 0,21.2659526 C0,21.2140357 0.106990227,21.1390447 0.626657046,20.8275432 C0.855921818,20.6890981 1.18198727,20.4929676 1.35011477,20.3891338 C1.63032727,20.2160774 2.20094182,19.8757333 2.90402046,19.4546295 C3.05686364,19.3623328 3.32179182,19.2008135 3.48991932,19.0969797 C3.65804682,18.9931459 4.02487046,18.7739412 4.30508296,18.6066534 C4.58529546,18.4393656 4.84003409,18.2778463 4.86550796,18.2547721 C4.89607659,18.231698 5.21704727,18.0355674 5.57877614,17.8221313 C5.94559977,17.6029265 6.31242341,17.3837218 6.39903455,17.3260364 C6.5569725,17.2279711 7.35685182,16.7434133 7.76952841,16.4953659 C7.94784546,16.3857635 7.97331932,16.3453837 7.97331932,16.1723274 L7.97331932,15.9761968 L5.33932182,15.9588912 C3.88731159,15.9531227 2.70022955,15.9242799 2.70022955,15.9012058 C2.70022955,15.8781316 2.87854659,15.7281494 3.09762182,15.5608616 C3.31160227,15.3993423 3.62747818,15.1570634 3.79560568,15.0186184 C3.96373318,14.8859418 4.2031875,14.6955798 4.33055682,14.5975146 C4.45283136,14.4994493 4.58020068,14.401384 4.61076932,14.3725413 C4.66171705,14.326393 5.32913227,13.8014554 5.7723775,13.4553427 C5.90484159,13.3515088 6.09334818,13.2015267 6.19014886,13.120767 C6.28185477,13.0400074 6.51621432,12.8611825 6.69962614,12.7169689 C6.88813273,12.5727553 7.24986159,12.284328 7.50460023,12.0766604 L7.97331932,11.701705 L8.00388796,11.2056101 C8.02936182,10.813349 8.05993046,10.6575983 8.16692068,10.4499307 C8.31466909,10.1730405 8.53883909,9.98267854 8.78848296,9.92499309 C8.97698955,9.89038182 14.3723539,9.88461327 15.9364491,9.92499309 C17.0522043,9.95383581 17.0725834,9.95383581 17.26109,9.82115928 C17.4037436,9.72309401 17.5260182,9.68848274 17.755283,9.68848274 C18.0253059,9.68848274 18.1068223,9.72309401 18.4226982,9.93653018 C18.8506591,10.2249574 19.5741168,10.5653016 19.8798032,10.6172185 C20.0020777,10.6402927 20.129447,10.686441 20.1702052,10.7210523 C20.2721007,10.8075805 22.0705555,10.8075805 22.1673561,10.7210523 C22.2081143,10.6806725 22.3405784,10.6345241 22.4577582,10.6114499 C22.7634445,10.5537645 23.4461441,10.2422631 23.8333468,9.98844708 C24.1848861,9.75770528 24.276592,9.7346311 24.4243405,9.86153909 C24.5109516,9.93653018 24.8777752,9.94806727 26.7781255,9.94806727 L29.0351098,9.94806727 L29.2745641,9.80385364 C29.59044,9.61349165 29.8910316,9.61349165 30.2221918,9.80385364 L30.4769305,9.94806727 L35.5258502,9.93653018 C39.4946782,9.92499309 40.5798648,9.90191891 40.5798648,9.850002 C40.5798648,9.72309401 38.2566484,6.25042989 38.1853216,6.26773553 C38.1496582,6.27927262 37.88473,6.6484595 37.594328,7.09263747 C37.3090207,7.53681544 36.9778605,8.02714177 36.8657755,8.18289248 C36.4378146,8.77128408 35.8570105,8.83473807 35.4341443,8.3386432 C35.306775,8.18289248 35.2863959,8.1079014 35.2863959,7.85408542 C35.2863959,7.54258398 35.4035757,7.21377692 35.6073666,6.93688675 C35.9436216,6.4811717 37.0899455,4.68138564 37.0899455,4.60639456 C37.0899455,4.55447765 36.6823636,3.89686352 36.1881707,3.14695266 C35.6939777,2.3970418 35.2252586,1.67020513 35.1437423,1.53176005 C34.8737193,1.04720226 34.9959939,0.51649612 35.4596182,0.141540692 C35.6583143,-0.0199785688 36.1321282,-0.048821294 36.3512034,0.083855242 C36.427625,0.130003602 36.9116284,0.799154827 37.4262005,1.56637132 C37.9407725,2.33358781 38.3840177,2.97389631 38.4094916,2.99697049 C38.4400602,3.01427612 38.5470505,2.88159959 38.6591355,2.69700615 C39.3724036,1.48561169 39.7137534,0.937599908 39.9277339,0.631867021 C40.3200314,0.083855242 40.7225184,-0.0545898391 41.1912375,0.199226143 C41.5223977,0.378051039 41.7109043,0.816460463 41.5784402,1.11065626 C41.5529664,1.16257317 41.4918291,1.30678679 41.4408814,1.42215769 C41.3899336,1.54329714 41.2065218,1.86056712 41.0383943,2.13168873 C40.8702668,2.40281035 40.5951491,2.84698832 40.4270216,3.12387848 C40.2588941,3.40076864 39.9990607,3.81610389 39.8564071,4.05261423 C39.7086586,4.28335603 39.5863841,4.52563493 39.5863841,4.58332038 C39.5863841,4.64677437 39.948113,5.24670306 40.3913582,5.92162283 C40.8346034,6.5965426 41.2523748,7.25415673 41.3186068,7.38106472 C41.3848389,7.50797271 41.741473,8.06752158 42.1082966,8.62130191 C43.0304505,10.0230584 43,9.94806727 43,10.5422274 C43,11.0902392 42.9336498,11.2806012 42.6738164,11.511343 C42.5668261,11.6094082 42.4445516,11.6440195 42.1643391,11.6613251 C41.965643,11.6728622 39.3163611,11.6901679 36.2747818,11.6959364 L30.7469534,11.7074735 L30.7316691,12.3708562 C30.7061952,13.3168976 30.8131855,14.9840071 30.9201757,15.4743334 C31.1647248,16.5472828 31.6640125,16.9280068 32.5352186,16.7261077 C32.7593886,16.6741908 32.9580848,16.6107368 32.9886534,16.5761255 C33.0141273,16.5472828 33.17716,16.5242086 33.3452875,16.5242086 C33.6255,16.5242086 33.6764477,16.5415143 33.8598596,16.7203391 C34.185925,17.0376091 34.2470623,17.5279355 34.0127027,17.9375022 C33.9209968,18.0990214 33.5541732,18.3932172 33.3707614,18.4566712 C33.2994346,18.4797454 33.2128234,18.5316623 33.1720652,18.5662736 C33.1313071,18.6008848 32.840905,18.6412646 32.4995552,18.6528017 C31.9544146,18.6701074 31.8728982,18.6585703 31.6792968,18.5431994 C31.4092739,18.3874487 31.1800091,18.1451698 30.9099861,17.7413716 L30.7061952,17.4241016 L30.6093946,17.8163627 C30.4463618,18.497051 30.2731396,18.6585703 29.7279989,18.6585703 C29.2389007,18.6585703 29.0198255,18.4855139 28.8618875,17.9721134 C28.7956555,17.7529087 28.7854659,17.2683509 28.7854659,14.7301911 C28.7854659,12.0766604 28.7752764,11.7420848 28.7039496,11.7132421 C28.5867698,11.6613251 25.3821577,11.6728622 25.3515891,11.7247791 C25.3413995,11.7478533 25.397442,11.9612895 25.4840532,12.1977998 C25.8967298,13.3515088 26.0597625,13.8014554 26.1463736,14.0264286 C26.1973214,14.1591051 26.2380795,14.2975502 26.2380795,14.3321615 C26.2380795,14.3610042 26.2584586,14.4359953 26.2890273,14.4936808 C26.3145011,14.5455977 26.4418705,14.8917104 26.5692398,15.2551287 C26.6966091,15.618547 26.8392627,15.9935025 26.8800209,16.0800306 C26.9156843,16.1723274 26.9513477,16.2703926 26.9513477,16.2992354 C26.9513477,16.3338466 26.9921059,16.4665232 27.0481484,16.5991997 C27.4557302,17.6375378 27.4557302,18.0240303 27.058338,18.4509027 C26.9309686,18.5893477 26.8443575,18.623959 26.5947136,18.6470332 C25.937488,18.6989501 25.8304977,18.5720421 25.3363048,17.0779889 C25.2089355,16.697265 25.0866609,16.316541 25.0662818,16.2357814 C25.040808,16.1550217 24.9745759,15.9473541 24.9134386,15.7742978 C24.8573961,15.6012414 24.7605955,15.3012771 24.6994582,15.1109151 C24.6434157,14.9205531 24.5771836,14.7417282 24.5517098,14.7071169 C24.5262359,14.6782742 24.5058568,14.6148202 24.5058568,14.5629033 C24.5058568,14.5167549 24.4752882,14.4071526 24.43453,14.3206244 C24.3937718,14.2340962 24.3479189,14.0783455 24.3275398,13.9745117 C24.3071607,13.8706779 24.2714973,13.7610755 24.256213,13.7264643 C24.2358339,13.6976215 24.164507,13.4899539 24.098275,13.2649807 C23.8537259,12.411236 23.7416409,12.2324111 23.6754089,12.5554496 C23.6601245,12.6304407 23.5887977,12.8727196 23.5174709,13.0919243 C23.4410493,13.3168976 23.2780166,13.8360666 23.1506473,14.2456333 C23.023278,14.6609686 22.9010034,15.0474611 22.8755295,15.1109151 C22.8296766,15.2205174 22.7023073,15.6358527 22.4424739,16.4953659 C21.8514802,18.4566712 21.7343005,18.6585703 21.1687807,18.6585703 C20.7968623,18.6585703 20.6491139,18.6066534 20.4707968,18.4162914 C20.0734045,18.0009561 20.0835941,17.6490749 20.5370289,16.4376804 C20.557408,16.3742264 20.6593034,16.0915677 20.7611989,15.8031405 C20.8630943,15.5204818 20.9649898,15.2378231 20.9904636,15.1859062 C21.0210323,15.1282207 21.0414114,15.0532296 21.0414114,15.0243869 C21.0414114,14.9897756 21.0821695,14.8513306 21.1331173,14.718654 C21.229918,14.4821437 21.4337089,13.9110577 21.8922384,12.6304407 C22.014513,12.284328 22.1367875,11.9382153 22.1622614,11.8632242 C22.1979248,11.7709275 22.19283,11.7247791 22.146977,11.7074735 C22.1164084,11.6901679 21.342003,11.6843993 20.4300386,11.6959364 L18.7793323,11.7074735 L18.7691427,14.6840427 C18.7589532,16.6741908 18.7385741,17.7356031 18.6978159,17.8971223 C18.6315839,18.1855496 18.4023191,18.5028196 18.1883386,18.6008848 C18.0966327,18.6412646 17.8928418,18.6643388 17.6839561,18.6470332 C17.373175,18.6297276 17.306943,18.6066534 17.1642893,18.4566712 C16.8229395,18.0874843 16.8433186,18.2547721 16.81275,14.8224878 L16.7872761,11.7074735 L15.9975864,11.701705 C15.4982986,11.6959364 15.085622,11.7190106 14.8767364,11.7709275 C14.6270925,11.828613 14.0055302,11.8516871 12.3446343,11.8516871 L10.1385977,11.8516871 L10.1385977,16.4261434 L10.1385977,21.0005996 L10.0163232,21.2890268 C9.87366955,21.6236024 9.72082637,21.7908902 9.46608773,21.9177982 C9.23172818,22.0274006 8.83943068,22.0274006 8.63563977,21.9177982 Z" id="Path"></path>
                    <path d="M17.5107339,21.8716499 C17.2509005,21.7793532 16.970688,21.5140001 16.8840768,21.2774897 C16.7923709,21.0294423 16.7923709,20.6141071 16.8840768,20.3602911 C16.9961618,20.0660953 17.3171325,19.8295849 17.6839561,19.7834366 C18.3004236,19.7026769 18.7487636,20.1353178 18.7487636,20.8102376 C18.7487636,21.2947954 18.6112048,21.5601484 18.2443811,21.7793532 C17.9845477,21.9293353 17.7501882,21.958178 17.5107339,21.8716499 Z" id="Path"></path>
                    <path d="M20.3026693,10.1211236 C20.0784993,10.0692067 19.7116757,9.94229872 19.4875057,9.84423346 C18.2545707,9.29622168 17.215237,7.9925305 16.8484134,6.54462569 C16.7516127,6.17543881 16.6751911,5.26400869 16.6955702,4.81406218 C16.7770866,3.15272121 17.6992405,1.5259915 19.0136918,0.729932287 C19.3550416,0.522264665 19.9613195,0.274217228 20.3281432,0.187689053 C20.689872,0.106929422 21.6527841,0.106929422 21.9890391,0.187689053 C22.304915,0.262680138 22.9417616,0.50495903 23.1812159,0.643404111 C23.7518305,0.977979724 24.4141509,1.62405677 24.8013536,2.21821691 C25.7438866,3.68342735 25.9018245,5.73702938 25.1936511,7.35799054 C24.2918764,9.42889821 22.2335882,10.5883758 20.3026693,10.1211236 Z M21.8311011,7.15609147 C21.9177123,7.10417456 22.014513,7.06379475 22.0501764,7.06379475 C22.1673561,7.06379475 22.7634445,6.32542098 22.8245818,6.10044772 C22.8602452,5.97930828 22.9162877,5.84663174 22.9468564,5.80048338 C23.0283727,5.68511248 23.0181832,4.60639456 22.9366668,4.51409784 C22.9060982,4.47948657 22.8755295,4.39872693 22.8755295,4.34681003 C22.8755295,4.29489312 22.7736341,4.09299405 22.6513595,3.90840061 C22.0247025,2.93928504 20.8223361,2.76046014 20.0071725,3.510371 C19.6658227,3.82187243 19.4722214,4.19105931 19.3601364,4.71022837 C19.27862,5.09672089 19.27862,5.17171197 19.3499468,5.55820449 C19.390705,5.81202047 19.4875057,6.10621627 19.5741168,6.26773553 C19.7167705,6.52732006 20.2007739,7.06379475 20.2924798,7.06379475 C20.3179536,7.06379475 20.4096595,7.09840602 20.4962707,7.14455438 C20.5879766,7.19070274 20.7051564,7.24261964 20.7611989,7.25992528 C20.9548002,7.31761073 21.678258,7.24261964 21.8311011,7.15609147 Z" id="Shape"></path>
                    <path d="M27.684995,8.56361646 C27.460825,8.4540141 27.3079818,8.24634648 27.2162759,7.93484505 C27.1755177,7.79639997 27.1551386,6.96572948 27.1551386,5.19478615 C27.1551386,2.40857889 27.1857073,2.00478074 27.4455407,1.41638915 C27.7359427,0.753006467 28.357505,0.274217228 29.0911523,0.141540692 C30.084633,-0.037284204 30.8947018,0.239605958 31.6028752,1.0010539 C31.8117609,1.22602716 31.9951727,1.4106206 32.0155518,1.4106206 C32.0308361,1.4106206 32.0461205,1.32409243 32.0461205,1.22602716 C32.0461205,0.510727575 32.4791761,0.0261697915 33.0497907,0.101160877 C33.3300032,0.135772147 33.5083202,0.279985773 33.6611634,0.579950116 L33.7783432,0.804923372 L33.7783432,4.34104148 C33.7783432,7.70410324 33.7732484,7.88869669 33.6815425,8.09059576 C33.3809509,8.75397844 32.6829671,8.87511789 32.2193427,8.3386432 C31.9696989,8.05021595 31.9493198,7.85408542 31.9289407,5.44860213 C31.9085616,3.34308319 31.8983721,3.21040666 31.7964766,2.90467377 C31.6640125,2.50664416 31.2920941,2.05669765 30.9711234,1.90671548 C30.8488489,1.84903003 30.7061952,1.77980748 30.6603423,1.75096476 C30.5176886,1.67020513 30.03878,1.69327931 29.8247996,1.79134457 C29.5802505,1.90671548 29.4681655,2.01631783 29.3153223,2.2816709 C29.0656784,2.73161742 29.0402046,3.02004467 29.0402046,5.34476832 C29.0402046,8.07905867 29.0045411,8.28095775 28.4543057,8.569385 C28.1995671,8.70206154 27.955018,8.70206154 27.684995,8.56361646 Z" id="Path"></path>
                </g>
            </g>
        </g>
    </g>
</svg>