<?xml version="1.0" encoding="UTF-8"?>
<svg width="297px" height="251px" viewBox="0 0 297 251" version="1.1" xmlns="http://www.w3.org/2000/svg" xmlns:xlink="http://www.w3.org/1999/xlink">
    <title>chat-svgrepo-com (2)</title>
    <g id="Page-1" stroke="none" stroke-width="1" fill="none" fill-rule="evenodd">
        <g id="chat-svgrepo-com-(2)" fill="#FFFFFF" fill-rule="nonzero">
            <path d="M206.093,158.516 C223.472,158.516 237.608,144.378 237.608,127.001 L237.608,31.593 C237.608,14.215 223.472,0.075 206.093,0.075 L31.51,0.075 C14.135,0.075 0,14.215 0,31.593 L0,127.001 C0,144.378 14.135,158.516 31.51,158.516 L54.443,158.516 L54.443,191.504 C54.443,195.516 56.859,199.131 60.564,200.666 C61.792,201.173 63.08,201.419 64.356,201.419 C66.936,201.419 69.473,200.412 71.37,198.515 L111.361,158.516 L206.093,158.516 L206.093,158.516 Z" id="Path"></path>
            <path d="M269.415,82.583 L253.471,82.583 L253.471,127.001 C253.471,153.126 232.218,174.379 206.093,174.379 L117.932,174.379 L99.395,192.921 C101.629,205.908 112.962,215.823 126.576,215.823 L203.338,215.823 L235.529,248.019 C237.425,249.916 239.963,250.924 242.543,250.924 C243.819,250.924 245.107,250.675 246.335,250.168 C250.04,248.633 252.455,245.019 252.455,241.008 L252.455,215.822 L269.416,215.822 C284.627,215.822 297.001,203.444 297.001,188.231 L297.001,110.17 C297.001,94.959 284.626,82.583 269.415,82.583 Z" id="Path"></path>
        </g>
    </g>
</svg>