<?xml version="1.0" encoding="UTF-8"?>
<svg width="251px" height="215px" viewBox="0 0 251 215" version="1.1" xmlns="http://www.w3.org/2000/svg" xmlns:xlink="http://www.w3.org/1999/xlink">
    <title>community-svgrepo-com (1)</title>
    <g id="Page-1" stroke="none" stroke-width="1" fill="none" fill-rule="evenodd">
        <g id="community-svgrepo-com-(1)" fill="#FFFFFF" fill-rule="nonzero">
            <ellipse id="Oval" cx="124.5" cy="29" rx="29.5" ry="29"></ellipse>
            <path d="M227.215711,108.846007 L199.871202,103.25782 C190.555084,101.345956 181.357435,105.529138 176.494678,112.966015 C171.771886,110.589407 166.693184,108.539932 161.291065,106.839137 L161.291065,90.9090598 C161.302062,78.8560896 151.230637,69 138.971271,69 L111.011919,69 C98.6875703,69 88.659634,78.8560896 88.659634,90.9090598 L88.659634,106.923369 C83.3115013,108.592332 78.2867859,110.641807 73.5315016,113.029189 C68.6687448,105.56048 59.4600991,101.345956 50.1329836,103.25782 L22.76648,108.846007 C10.754551,111.307336 2.95854407,122.980284 5.47090177,134.790353 L12.3396457,166.935525 C14.8305089,178.713762 26.7559601,186.351424 38.7788864,183.890095 L47.4371728,182.115352 C51.7715647,188.390125 57.7670319,194.147265 65.4440692,199.069923 C81.4344812,209.337866 102.558081,215 124.97485,215 C159.274581,215 188.819028,201.489136 202.426549,182.083521 L211.225299,183.890095 C223.237228,186.34065 235.162679,178.713762 237.653543,166.935525 L244.532784,134.790353 C247.034144,122.980284 239.238138,111.307336 227.215711,108.846007 Z M124.963853,204.024412 C104.71403,204.024412 85.7363813,199.027807 71.5790008,189.890135 C66.7267413,186.784336 62.7047695,183.330346 59.4810937,179.632965 L66.1123983,178.270077 C78.1458219,175.819522 85.9418288,164.146574 83.4294711,152.357562 L77.2725452,123.455311 C80.8631272,121.564505 84.6371624,119.905826 88.6481369,118.490538 L88.6481369,123.761876 C88.6481369,135.793788 98.6975677,145.649878 111.000422,145.649878 L138.959774,145.649878 C151.230637,145.649878 161.280068,135.783504 161.280068,123.761876 L161.280068,118.215805 C165.366523,119.641868 169.205042,121.279489 172.763632,123.138463 L166.520228,152.368336 C164.029365,164.157347 171.814375,175.830296 183.847798,178.280851 L190.543587,179.654023 C178.057779,194.136981 153.354594,204.024412 124.963853,204.024412 Z" id="Shape"></path>
            <ellipse id="Oval" cx="221.5" cy="67" rx="29.5" ry="29"></ellipse>
            <path d="M35.5372116,95.3824021 C51.4890102,92.1010285 61.6759156,76.7283561 58.3812603,61.0568832 C55.021797,45.3962757 39.4166456,35.3392903 23.4537944,38.6206639 C7.52359844,41.8911721 -2.70651228,57.2534729 0.631348327,72.9249458 C3.95865881,88.6067904 19.5854129,98.6534042 35.5372116,95.3824021 Z" id="Path"></path>
        </g>
    </g>
</svg>