<?xml version="1.0" encoding="UTF-8"?>
<svg width="88px" height="88px" viewBox="0 0 88 88" version="1.1" xmlns="http://www.w3.org/2000/svg" xmlns:xlink="http://www.w3.org/1999/xlink">
    <title>feature1</title>
    <defs>
        <filter x="-17.1%" y="-17.1%" width="134.3%" height="134.3%" filterUnits="objectBoundingBox" id="filter-1">
            <feOffset dx="0" dy="2" in="SourceAlpha" result="shadowOffsetOuter1"></feOffset>
            <feGaussianBlur stdDeviation="2" in="shadowOffsetOuter1" result="shadowBlurOuter1"></feGaussianBlur>
            <feColorMatrix values="0 0 0 0 0   0 0 0 0 0   0 0 0 0 0  0 0 0 0.5 0" type="matrix" in="shadowBlurOuter1" result="shadowMatrixOuter1"></feColorMatrix>
            <feMerge>
                <feMergeNode in="shadowMatrixOuter1"></feMergeNode>
                <feMergeNode in="SourceGraphic"></feMergeNode>
            </feMerge>
        </filter>
    </defs>
    <g id="Page-1" stroke="none" stroke-width="1" fill="none" fill-rule="evenodd">
        <g id="feature1" filter="url(#filter-1)" transform="translate(9.000000, 9.000000)" fill-rule="nonzero">
            <rect id="Rounded_Rectangle_528" fill="#FF4361" x="9" y="16" width="53" height="53" rx="26.5"></rect>
            <rect id="Rounded_Rectangle_528_copy" fill="#FF4361" x="0" y="0" width="70" height="70" rx="30"></rect>
            <g id="map-svgrepo-com" transform="translate(11.000000, 18.000000)" fill="#FFFFFF">
                <path d="M48.1720598,0.324485024 C47.6522337,0.00226190836 46.9835435,-0.0861780532 46.3745054,0.0870454374 L35.7513587,3.10794428 L25.128212,0.0872739644 C24.7205,-0.0288177681 24.2795,-0.0288177681 23.871788,0.0872739644 L13.2489076,3.10794428 L2.62549457,0.0872739644 C2.01645652,-0.0859495262 1.34829891,0.00226190836 0.827940217,0.324713551 C0.30811413,0.646936667 0,1.16363629 0,1.71415791 L0,29.0866688 C0,29.8254967 0.551782609,30.4813693 1.36907065,30.7135527 L12.6206957,33.9129312 C12.6230924,33.9136168 12.6257554,33.9138453 12.6281522,33.9145309 C12.7186957,33.9398974 12.8121685,33.9590937 12.9077717,33.9732623 C12.9258804,33.9760047 12.9437228,33.9780614 12.9618315,33.9803467 C13.055837,33.9920016 13.1511739,34 13.2489076,34 C13.3466413,34 13.4419783,33.9920016 13.5359837,33.9803467 C13.5540924,33.9780614 13.5722011,33.9760047 13.5900435,33.9732623 C13.6856467,33.9590937 13.7791196,33.9398974 13.869663,33.9145309 C13.8720598,33.9138453 13.8747228,33.9136168 13.8771196,33.9129312 L24.5,30.8922609 L35.1231467,33.9129312 C35.3271359,33.9709771 35.5391141,34 35.7513587,34 C35.963337,34 36.1755815,33.9709771 36.3795707,33.9129312 L47.6309293,30.7135527 C48.4482174,30.4811408 49,29.8254967 49,29.0866688 L49,1.71415791 C49,1.16363629 48.6918859,0.646936667 48.1720598,0.324485024 Z M15.2461902,6.15123877 L22.5027174,4.08763967 L22.5027174,27.8491949 L15.2461902,29.9125655 L15.2461902,6.15123877 L15.2461902,6.15123877 Z M26.4972826,4.08763967 L33.7540761,6.15101024 L33.7540761,29.9125655 L26.4972826,27.8491949 L26.4972826,4.08763967 Z M3.99456522,4.08763967 L11.251625,6.15101024 L11.251625,29.9125655 L3.99456522,27.8489664 L3.99456522,4.08763967 Z M45.0054348,27.8489664 L37.7486413,29.9125655 L37.7486413,6.15123877 L45.0054348,4.08763967 L45.0054348,27.8489664 Z" id="Shape"></path>
            </g>
        </g>
    </g>
</svg>