<?xml version="1.0" encoding="UTF-8"?>
<svg width="88px" height="88px" viewBox="0 0 88 88" version="1.1" xmlns="http://www.w3.org/2000/svg" xmlns:xlink="http://www.w3.org/1999/xlink">
    <title>feature1</title>
    <defs>
        <filter x="-17.1%" y="-17.1%" width="134.3%" height="134.3%" filterUnits="objectBoundingBox" id="filter-1">
            <feOffset dx="0" dy="2" in="SourceAlpha" result="shadowOffsetOuter1"></feOffset>
            <feGaussianBlur stdDeviation="2" in="shadowOffsetOuter1" result="shadowBlurOuter1"></feGaussianBlur>
            <feColorMatrix values="0 0 0 0 0   0 0 0 0 0   0 0 0 0 0  0 0 0 0.5 0" type="matrix" in="shadowBlurOuter1" result="shadowMatrixOuter1"></feColorMatrix>
            <feMerge>
                <feMergeNode in="shadowMatrixOuter1"></feMergeNode>
                <feMergeNode in="SourceGraphic"></feMergeNode>
            </feMerge>
        </filter>
    </defs>
    <g id="Page-1" stroke="none" stroke-width="1" fill="none" fill-rule="evenodd">
        <g id="feature1" filter="url(#filter-1)" transform="translate(9.000000, 9.000000)" fill-rule="nonzero">
            <rect id="Rounded_Rectangle_528" fill="#FF4361" x="9" y="16" width="53" height="53" rx="26.5"></rect>
            <rect id="Rounded_Rectangle_528_copy" fill="#FF4361" x="0" y="0" width="70" height="70" rx="30"></rect>
            <g id="promotion-svgrepo-com" transform="translate(12.000000, 16.000000)" fill="#FFFFFF">
                <path d="M40.5978223,0 C38.5668457,0 36.8537695,1.45277105 36.347959,3.42070193 L8.40120117,11.9449859 C7.70370117,10.3560146 6.17396484,9.24997692 4.40217773,9.24997692 C1.97481445,9.24997692 0,11.3247441 0,13.8749654 L0,23.1249423 C0,25.6751635 1.97481445,27.7499307 4.40217773,27.7499307 C6.17396484,27.7499307 7.70370117,26.6438007 8.40120117,25.0549218 L11.7391113,26.0730527 L11.7391113,28.8475656 C11.7391113,30.9057118 12.9998145,32.6860096 14.8762793,33.2776262 L23.6806348,36.0526008 C24.103125,36.1858462 24.5327344,36.2514069 24.9584766,36.2514069 C25.8887988,36.2514069 26.7997852,35.938008 27.5734863,35.3332793 C28.701123,34.4516255 29.3478223,33.0992271 29.3478223,31.6226326 L29.3478223,31.4441411 L36.347959,33.5792981 C36.8536816,35.5473213 38.5668457,37 40.5978223,37 C43.0251855,37 45,34.9252328 45,32.3750115 L45,4.62498846 C45,2.07476722 43.0251855,0 40.5978223,0 Z M5.86959961,23.1249423 C5.86959961,23.975016 5.21129883,24.6666359 4.40217773,24.6666359 C3.59305664,24.6666359 2.93475586,23.975016 2.93475586,23.1249423 L2.93475586,13.8749654 C2.93475586,13.0248916 3.59305664,12.3332718 4.40217773,12.3332718 C5.21129883,12.3332718 5.86959961,13.0248916 5.86959961,13.8749654 L5.86959961,23.1249423 Z M26.4130664,31.6224479 C26.4130664,32.1146153 26.1974707,32.5655071 25.8216504,32.8592378 C25.4457422,33.1530608 24.9727148,33.2404136 24.5239453,33.0991348 L15.7196777,30.3241602 C15.0941602,30.1269238 14.6739551,29.5335528 14.6739551,28.8474733 L14.6739551,26.9681879 L26.4130664,30.5488212 L26.4130664,31.6224479 L26.4130664,31.6224479 Z M36.1956445,30.3220364 L28.3179199,27.9191883 C28.3166895,27.918819 28.3153711,27.9184496 28.3141406,27.9180802 L8.80435547,21.9671947 L8.80435547,15.0328053 L36.1956445,6.67805599 L36.1956445,30.3220364 Z M42.0652441,32.3749192 C42.0652441,33.2249929 41.4069434,33.9166128 40.5978223,33.9166128 C39.7887012,33.9166128 39.1304004,33.2249929 39.1304004,32.3749192 L39.1304004,4.62498846 C39.1304004,3.77491471 39.7887012,3.08329486 40.5978223,3.08329486 C41.4069434,3.08329486 42.0652441,3.77491471 42.0652441,4.62498846 L42.0652441,32.3749192 Z" id="Shape"></path>
            </g>
        </g>
    </g>
</svg>