<?xml version="1.0" encoding="UTF-8"?>
<svg width="88px" height="88px" viewBox="0 0 88 88" version="1.1" xmlns="http://www.w3.org/2000/svg" xmlns:xlink="http://www.w3.org/1999/xlink">
    <title>feature1</title>
    <defs>
        <filter x="-17.1%" y="-17.1%" width="134.3%" height="134.3%" filterUnits="objectBoundingBox" id="filter-1">
            <feOffset dx="0" dy="2" in="SourceAlpha" result="shadowOffsetOuter1"></feOffset>
            <feGaussianBlur stdDeviation="2" in="shadowOffsetOuter1" result="shadowBlurOuter1"></feGaussianBlur>
            <feColorMatrix values="0 0 0 0 0   0 0 0 0 0   0 0 0 0 0  0 0 0 0.5 0" type="matrix" in="shadowBlurOuter1" result="shadowMatrixOuter1"></feColorMatrix>
            <feMerge>
                <feMergeNode in="shadowMatrixOuter1"></feMergeNode>
                <feMergeNode in="SourceGraphic"></feMergeNode>
            </feMerge>
        </filter>
    </defs>
    <g id="Page-1" stroke="none" stroke-width="1" fill="none" fill-rule="evenodd">
        <g id="feature1" filter="url(#filter-1)" transform="translate(9.000000, 9.000000)" fill-rule="nonzero">
            <rect id="Rounded_Rectangle_528" fill="#FF4361" x="9" y="16" width="53" height="53" rx="26.5"></rect>
            <rect id="Rounded_Rectangle_528_copy" fill="#FF4361" x="0" y="0" width="70" height="70" rx="30"></rect>
            <g id="chat-svgrepo-com-(1)" transform="translate(10.000000, 14.000000)" fill="#FFFFFF">
                <path d="M43.7779718,11 L26.2219329,11 C22.7910211,11 20,13.4670866 20,16.4995771 L20,29.1671651 C20,32.1991505 22.7911163,34.6656479 26.2219329,34.6656479 L28.8190246,34.6656479 L38.975362,41.6520932 C40.24619,42.5260828 42.0969012,41.6439282 41.9612649,40.2217065 L41.4311024,34.6656479 L43.7780671,34.6656479 C47.2087884,34.6656479 50,32.1990663 50,29.1671651 L50,16.4996613 C50,13.4670866 47.2087884,11 43.7779718,11 Z M29.9908877,24.2825709 C29.1019177,24.2825709 28.3814453,23.6457866 28.3814453,22.860265 C28.3814453,22.0746593 29.102013,21.4379592 29.9908877,21.4379592 C30.8798578,21.4379592 31.6003302,22.0747434 31.6003302,22.860265 C31.6004255,23.6457025 30.8798578,24.2825709 29.9908877,24.2825709 Z M34.9999047,24.2825709 C34.1109347,24.2825709 33.3904623,23.6457866 33.3904623,22.860265 C33.3904623,22.0746593 34.11103,21.4379592 34.9999047,21.4379592 C35.8887795,21.4379592 36.6093472,22.0747434 36.6093472,22.860265 C36.6094425,23.6457025 35.8888748,24.2825709 34.9999047,24.2825709 Z M40.0089218,24.2825709 C39.1199517,24.2825709 38.3994793,23.6457866 38.3994793,22.860265 C38.3994793,22.0746593 39.120047,21.4379592 40.0089218,21.4379592 C40.8978918,21.4379592 41.6183642,22.0747434 41.6183642,22.860265 C41.6184595,23.6457025 40.8978918,24.2825709 40.0089218,24.2825709 Z" id="Shape"></path>
                <path d="M29.3821101,8.82145787 L29.3821101,8.82137369 C29.7232973,8.82137369 30,8.57684059 30,8.27531992 L30,5.49858556 C30,2.4618296 27.2143993,0 23.7780473,0 L6.2219527,0 C2.78560067,0 0,2.4618296 0,5.49858556 L0,18.1675886 C0,21.2044288 2.78569592,23.6661742 6.2219527,23.6661742 L8.56873434,23.6661742 L8.0385701,29.2223366 C7.90264765,30.6461 9.75688899,31.5246515 11.0244826,30.65275 L14.7127721,28.1155823 C14.8631727,28.0120451 14.9511841,27.8531196 14.9511841,27.684598 L14.9511841,17.5976287 C14.9511841,12.7506544 19.3972866,8.82145787 24.8819053,8.82145787 L29.3821101,8.82145787 Z" id="Path"></path>
            </g>
        </g>
    </g>
</svg>