<?xml version="1.0" encoding="UTF-8"?>
<svg width="88px" height="88px" viewBox="0 0 88 88" version="1.1" xmlns="http://www.w3.org/2000/svg" xmlns:xlink="http://www.w3.org/1999/xlink">
    <title>feature1</title>
    <defs>
        <filter x="-17.1%" y="-17.1%" width="134.3%" height="134.3%" filterUnits="objectBoundingBox" id="filter-1">
            <feOffset dx="0" dy="2" in="SourceAlpha" result="shadowOffsetOuter1"></feOffset>
            <feGaussianBlur stdDeviation="2" in="shadowOffsetOuter1" result="shadowBlurOuter1"></feGaussianBlur>
            <feColorMatrix values="0 0 0 0 0   0 0 0 0 0   0 0 0 0 0  0 0 0 0.5 0" type="matrix" in="shadowBlurOuter1" result="shadowMatrixOuter1"></feColorMatrix>
            <feMerge>
                <feMergeNode in="shadowMatrixOuter1"></feMergeNode>
                <feMergeNode in="SourceGraphic"></feMergeNode>
            </feMerge>
        </filter>
    </defs>
    <g id="Page-1" stroke="none" stroke-width="1" fill="none" fill-rule="evenodd">
        <g id="feature1" filter="url(#filter-1)" transform="translate(9.000000, 9.000000)" fill-rule="nonzero">
            <rect id="Rounded_Rectangle_528" fill="#FF4361" x="9" y="16" width="53" height="53" rx="26.5"></rect>
            <rect id="Rounded_Rectangle_528_copy" fill="#FF4361" x="0" y="0" width="70" height="70" rx="30"></rect>
            <g id="delivery-point-deliver-delivery-truck-delivery-location-svgrepo-com" transform="translate(7.000000, 13.000000)" fill="#FFFFFF">
                <path d="M9.88746429,34.3596441 C7.86758333,34.3596441 6.23313095,35.8446867 6.23313095,37.6799248 C6.23313095,39.5151629 7.86758333,41 9.88746429,41 C11.9073452,41 13.5417976,39.5149574 13.5417976,37.6797193 C13.5417976,35.8444812 11.9073452,34.3596441 9.88746429,34.3596441 Z M9.88746429,38.9514386 C9.12022619,38.9514386 8.48779762,38.3768221 8.48779762,37.6797193 C8.48779762,36.9826165 9.12022619,36.408 9.88746429,36.408 C10.6547024,36.408 11.287131,36.9826165 11.287131,37.6797193 C11.287131,38.3768221 10.6547024,38.9514386 9.88746429,38.9514386 Z M32.8921667,34.2182506 C30.8722857,34.2182506 29.2378333,35.7032932 29.2378333,37.5385313 C29.2378333,39.3737694 30.8722857,40.858812 32.8921667,40.858812 C34.9120476,40.858812 36.5465,39.3737694 36.5465,37.5385313 C36.5465,35.7032932 34.9120476,34.2182506 32.8921667,34.2182506 Z M32.8921667,38.8100451 C32.1249286,38.8100451 31.4925,38.2354286 31.4925,37.5383258 C31.4925,36.8412231 32.1249286,36.2666065 32.8921667,36.2666065 C33.6594048,36.2666065 34.2918333,36.8412231 34.2918333,37.5383258 C34.2918333,38.2354286 33.6594048,38.8100451 32.8921667,38.8100451 Z M3.55271368e-15,35.7933083 C3.55271368e-15,36.4369774 0.556428571,37.0228972 1.26485714,37.0228972 L4.74321429,37.0228972 C4.88933333,37.0228972 5.03296429,36.8562256 5.05942857,36.735589 C5.45797619,34.6588722 7.48238095,33.2245915 9.88769048,33.2245915 C12.293,33.2245915 14.2859643,34.6648321 14.6847381,36.7415489 C14.7114286,36.8743108 14.8738333,37.0228972 15.0199524,37.0228972 L20.2372619,37.0228972 L20.2372619,18.6355789 L3.55271368e-15,18.680792 L3.55271368e-15,35.7933083 Z M39.5256548,34.5807769 L38.735119,34.5807769 L38.735119,31.420386 C38.735119,30.3578797 37.8624762,29.5528822 36.6797262,29.5528822 L32.8851548,29.5528822 C32.8055357,29.5528822 32.7114405,29.5144511 32.6582857,29.4661554 L26.7449881,24.2364461 C26.4792143,23.9949674 26.1559881,23.8188421 25.7705595,23.8069223 L21.5018929,23.8069223 L21.5018929,37.0226917 L27.8259524,37.0226917 C27.9720714,37.0226917 28.1154762,36.8562256 28.1421667,36.7353835 C28.5407143,34.6586667 30.4868571,33.0829925 32.8919405,33.0829925 C35.2970238,33.0829925 37.2904405,34.6646266 37.6889881,36.7413434 C37.7156786,36.8741053 37.9563452,37.0226917 38.1024643,37.0226917 L38.4186786,37.0226917 C39.1761905,37.0226917 39.8416431,36.4032732 39.8416431,35.7271328 L39.8416431,34.8337644 C39.841869,34.701208 39.685119,34.5807769 39.5256548,34.5807769 Z M29.8813452,29.5530877 L23.3991786,29.5530877 C23.2397143,29.5530877 23.0829643,29.4106667 23.0829643,29.2657794 L23.0768571,25.5527619 C23.0768571,25.4078747 23.2397143,25.2436692 23.3991786,25.2436692 L25.4545714,25.2436692 C25.5341905,25.2436692 25.6954643,25.3234085 25.7619643,25.3717043 L30.0396786,29.1223308 C30.1989167,29.303183 30.134,29.5530877 29.8813452,29.5530877 Z M47.5384524,0 C42.3125476,0 38.0769048,3.84845113 38.0769048,8.5966416 C38.0769048,9.78800501 38.3490119,11.2212581 38.8258214,12.254787 C41.026881,17.0245564 47.5384524,31.2161053 47.5384524,31.2161053 C47.5384524,31.2161053 54.05025,17.0397644 56.2510833,12.269995 C56.7278929,11.2364662 57,9.78800501 57,8.5966416 C57,3.84845113 52.7643571,0 47.5384524,0 Z M47.5384524,12.5657293 C45.163,12.5657293 43.2372143,10.815985 43.2372143,8.6576792 C43.2372143,6.49937343 45.163,4.74962907 47.5384524,4.74962907 C49.9139048,4.74962907 51.8396905,6.49937343 51.8396905,8.6576792 C51.8396905,10.815985 49.9139048,12.5657293 47.5384524,12.5657293 Z" id="Shape"></path>
            </g>
        </g>
    </g>
</svg>