<?xml version="1.0" encoding="UTF-8"?>
<svg width="225px" height="80px" viewBox="0 0 225 80" version="1.1" xmlns="http://www.w3.org/2000/svg" xmlns:xlink="http://www.w3.org/1999/xlink">
    <title>Group 4</title>
    <g id="Page-1" stroke="none" stroke-width="1" fill="none" fill-rule="evenodd">
        <g id="Group-4" fill="#FFFFFF" fill-rule="nonzero">
            <g id="apple-ios-logo-svgrepo-com">
                <path d="M4.621,6.965 C4.621,8.333 3.788,9.345 2.359,9.345 C1.169,9.345 0.276,8.333 0.276,6.965 C0.276,5.655 1.228,4.584 2.478,4.584 C3.788,4.584 4.621,5.655 4.621,6.965 Z M1.327,78.5 L1.327,23.78 L3.57,23.78 L3.57,78.5 L1.327,78.5 Z M78.174,39.512 C78.174,67.1 62.859,79.641 46.095,79.641 C28.97,79.641 15.102,66.076 15.102,40.653 C15.102,14.549 29.453,0.526 47.301,0.526 C64.787,0.524 78.174,14.318 78.174,39.512 Z M17.375,40.082 C17.375,61 27.513,77.25 46.201,77.25 C65.019,77.25 75.812,60.5 75.812,39.844 C75.812,20.689 67.164,3.208 47.43,3.208 C27.696,3.208 17.375,19.667 17.375,40.082 Z M86.406,72.571 C90.169,75.079 96.664,77.501 102.25,77.501 C112.852,77.501 122.281,70.084 122.281,59.167 C122.281,49.036 116,43.75 105.336,39.209 C95.792,35.145 87.211,30.734 87.211,19.904 C87.211,8.619 96.102,0.637 108.186,0.637 C114.684,0.637 119.586,2.461 121.866,4.057 L120.96,6.025 C119.022,4.658 113.784,2.916 108.086,2.916 C95.315,2.916 89.752,12.566 89.752,19.67 C89.752,29.482 97.358,32.763 107.162,37.437 C118.561,43.022 124.602,47.947 124.602,58.664 C124.602,70.178 116.395,79.524 101.803,79.524 C95.76,79.524 88.807,77.473 85.387,74.85 L86.406,72.571 Z" id="Shape"></path>
            </g>
            <g id="google-svgrepo-com" transform="translate(144.000000, 0.000000)">
                <path d="M68.9374484,70 C78.5579657,61.0837989 82.8337512,46.2234637 80.2682799,32 L42,32 L42,47.7094972 L63.8065059,47.7094972 C62.9513488,52.8044693 59.9582989,57.0502793 55.6825135,59.8100559 L68.9374484,70 Z" id="Path"></path>
                <path d="M5,58.1757641 C10.6728738,69.0792783 21.1597462,76.8400679 33.4503409,79.2303838 C45.7409357,81.6206998 58.4760331,78.3761966 68,70.4282147 L54.8040541,60.4601193 C43.5236486,67.7285222 24.7939189,65.0288297 18.4087838,48 L5,58.1757641 Z" id="Path"></path>
                <path d="M18,47.6842105 C16.2642432,42.4210526 16.2642432,37.5789474 18,32.3157895 L4.33091554,22 C-0.659385132,31.6842105 -2.17817229,45.3684211 4.33091554,58 L18,47.6842105 Z" id="Path"></path>
                <path d="M18.5757576,32 C23.3164983,17.6463723 43.5723906,9.32542872 57.1481481,21.5988205 L69,10.3655467 C52.1919192,-5.23622256 19.4377104,-4.6121518 5,21.8068441 L18.5757576,32 Z" id="Path"></path>
            </g>
        </g>
    </g>
</svg>