<?xml version="1.0" encoding="UTF-8"?>
<svg width="844px" height="383px" viewBox="0 0 844 383" version="1.1" xmlns="http://www.w3.org/2000/svg" xmlns:xlink="http://www.w3.org/1999/xlink">
    <title>livroux_logo</title>
    <g id="Page-1" stroke="none" stroke-width="1" fill="none" fill-rule="evenodd">
        <g id="livroux_logo" transform="translate(-0.000000, 0.000000)" fill="#FFFFFF" fill-rule="nonzero">
            <g id="Group" transform="translate(422.000000, 191.500000) scale(-1, 1) rotate(-180.000000) translate(-422.000000, -191.500000) translate(0.000000, 0.500000)">
                <path d="M169.5,380 C165.6,378.2 162.7,375.7 160.5,372.3 L158.8,369.5 L79.4,369.5 C35.7,369.5 0,369.2 0,368.7 C0,367.8 2.1,366.5 12.3,361.1 C16.8,358.7 23.2,355.3 26.5,353.5 C32,350.5 43.2,344.6 57,337.3 C60,335.7 65.2,332.9 68.5,331.1 C71.8,329.3 79,325.5 84.5,322.6 C90,319.7 95,316.9 95.5,316.5 C96.1,316.1 102.4,312.7 109.5,309 C116.7,305.2 123.9,301.4 125.6,300.4 C128.7,298.7 144.4,290.3 152.5,286 C156,284.1 156.5,283.4 156.5,280.4 L156.5,277 L104.8,276.7 C76.3,276.6 53,276.1 53,275.7 C53,275.3 56.5,272.7 60.8,269.8 C65,267 71.2,262.8 74.5,260.4 C77.8,258.1 82.5,254.8 85,253.1 C87.4,251.4 89.9,249.7 90.5,249.2 C91.5,248.4 104.6,239.3 113.3,233.3 C115.9,231.5 119.6,228.9 121.5,227.5 C123.3,226.1 127.9,223 131.5,220.5 C135.2,218 142.3,213 147.3,209.4 L156.5,202.9 L157.1,194.3 C157.6,187.5 158.2,184.8 160.3,181.2 C163.2,176.4 167.6,173.1 172.5,172.1 C176.2,171.5 282.1,171.4 312.8,172.1 C334.7,172.6 335.1,172.6 338.8,170.3 C341.6,168.6 344,168 348.5,168 C353.8,168 355.4,168.6 361.6,172.3 C370,177.3 384.2,183.2 390.2,184.1 C392.6,184.5 395.1,185.3 395.9,185.9 C397.9,187.4 433.2,187.4 435.1,185.9 C435.9,185.2 438.5,184.4 440.8,184 C446.8,183 460.2,177.6 467.8,173.2 C474.7,169.2 476.5,168.8 479.4,171 C481.1,172.3 488.3,172.5 525.6,172.5 L569.9,172.5 L574.6,170 C580.8,166.7 586.7,166.7 593.2,170 L598.2,172.5 L697.3,172.3 C775.2,172.1 796.5,171.7 796.5,170.8 C796.5,168.6 750.9,108.4 749.5,108.7 C748.8,108.9 743.6,115.3 737.9,123 C732.3,130.7 725.8,139.2 723.6,141.9 C715.2,152.1 703.8,153.2 695.5,144.6 C693,141.9 692.6,140.6 692.6,136.2 C692.6,130.8 694.9,125.1 698.9,120.3 C705.5,112.4 728,81.2 728,79.9 C728,79 720,67.6 710.3,54.6 C700.6,41.6 691.4,29 689.8,26.6 C684.5,18.2 686.9,9 696,2.5 C699.9,-0.3 709.2,-0.8 713.5,1.5 C715,2.3 724.5,13.9 734.6,27.2 C744.7,40.5 753.4,51.6 753.9,52 C754.5,52.3 756.6,50 758.8,46.8 C772.8,25.8 779.5,16.3 783.7,11 C791.4,1.5 799.3,-0.9 808.5,3.5 C815,6.6 818.7,14.2 816.1,19.3 C815.6,20.2 814.4,22.7 813.4,24.7 C812.4,26.8 808.8,32.3 805.5,37 C802.2,41.7 796.8,49.4 793.5,54.2 C790.2,59 785.1,66.2 782.3,70.3 C779.4,74.3 777,78.5 777,79.5 C777,80.6 784.1,91 792.8,102.7 C801.5,114.4 809.7,125.8 811,128 C812.3,130.2 819.3,139.9 826.5,149.5 C844.6,173.8 844.00232,172.5 844.00232,182.8 C844.00232,192.3 842.7,195.6 837.6,199.6 C835.5,201.3 833.1,201.9 827.6,202.2 C823.7,202.4 771.7,202.7 712,202.8 L603.5,203 L603.2,214.5 C602.7,230.9 604.8,259.8 606.9,268.3 C611.7,286.9 621.5,293.5 638.6,290 C643,289.1 646.9,288 647.5,287.4 C648,286.9 651.2,286.5 654.5,286.5 C660,286.5 661,286.8 664.6,289.9 C671,295.4 672.2,303.9 667.6,311 C665.8,313.8 658.6,318.9 655,320 C653.6,320.4 651.9,321.3 651.1,321.9 C650.3,322.5 644.6,323.2 637.9,323.4 C627.2,323.7 625.6,323.5 621.8,321.5 C616.5,318.8 612,314.6 606.7,307.6 L602.7,302.1 L600.8,308.9 C597.6,320.7 594.2,323.5 583.5,323.5 C573.9,323.5 569.6,320.5 566.5,311.6 C565.2,307.8 565,299.4 565,255.4 C565,209.4 564.8,203.6 563.4,203.1 C561.1,202.2 498.2,202.4 497.6,203.3 C497.4,203.7 498.5,207.4 500.2,211.5 C508.3,231.5 511.5,239.3 513.2,243.2 C514.2,245.5 515,247.9 515,248.5 C515,249 515.4,250.3 516,251.3 C516.5,252.2 519,258.2 521.5,264.5 C524,270.8 526.8,277.3 527.6,278.8 C528.3,280.4 529,282.1 529,282.6 C529,283.2 529.8,285.5 530.9,287.8 C538.9,305.8 538.9,312.5 531.1,319.9 C528.6,322.3 526.9,322.9 522,323.3 C509.1,324.2 507,322 497.3,296.1 C494.8,289.5 492.4,282.9 492,281.5 C491.5,280.1 490.2,276.5 489,273.5 C487.9,270.5 486,265.3 484.8,262 C483.7,258.7 482.4,255.6 481.9,255 C481.4,254.5 481,253.4 481,252.5 C481,251.7 480.4,249.8 479.6,248.3 C478.8,246.8 477.9,244.1 477.5,242.3 C477.1,240.5 476.4,238.6 476.1,238 C475.7,237.5 474.3,233.9 473,230 C468.2,215.2 466,212.1 464.7,217.7 C464.4,219 463,223.2 461.6,227 C460.1,230.9 456.9,239.9 454.4,247 C451.9,254.2 449.5,260.9 449,262 C448.1,263.9 445.6,271.1 440.5,286 C428.9,320 426.6,323.5 415.5,323.5 C408.2,323.5 405.3,322.6 401.8,319.3 C394,312.1 394.2,306 403.1,285 C403.5,283.9 405.5,279 407.5,274 C409.5,269.1 411.5,264.2 412,263.3 C412.6,262.3 413,261 413,260.5 C413,259.9 413.8,257.5 414.8,255.2 C416.7,251.1 420.7,241.2 429.7,219 C432.1,213 434.5,207 435,205.7 C435.7,204.1 435.6,203.3 434.7,203 C434.1,202.7 418.9,202.6 401,202.8 L368.6,203 L368.4,254.6 C368.2,289.1 367.8,307.5 367,310.3 C365.7,315.3 361.2,320.8 357,322.5 C355.2,323.2 351.2,323.6 347.1,323.3 C341,323 339.7,322.6 336.9,320 C330.2,313.6 330.6,316.5 330,257 L329.5,203 L314,202.9 C304.2,202.8 296.1,203.2 292,204.1 C287.1,205.1 274.9,205.5 242.3,205.5 L199,205.5 L199,284.8 L199,364.1 L196.6,369.1 C193.8,374.9 190.8,377.8 185.8,380 C181.2,381.9 173.5,381.9 169.5,380 Z" id="Path"></path>
                <path d="M343.7,379.2 C338.6,377.6 333.1,373 331.4,368.9 C329.6,364.6 329.6,357.4 331.4,353 C333.6,347.9 339.9,343.8 347.1,343 C359.2,341.6 368,349.1 368,360.8 C368,369.2 365.3,373.8 358.1,377.6 C353,380.2 348.4,380.7 343.7,379.2 Z" id="Path"></path>
                <path d="M398.5,175.5 C394.1,174.6 386.9,172.4 382.5,170.7 C358.3,161.2 337.9,138.6 330.7,113.5 C328.8,107.1 327.3,91.3 327.7,83.5 C329.3,54.7 347.4,26.5 373.2,12.7 C379.9,9.1 391.8,4.8 399,3.3 C406.1,1.9 425,1.9 431.6,3.3 C437.8,4.6 450.3,8.8 455,11.2 C466.2,17 479.2,28.2 486.8,38.5 C505.3,63.9 508.4,99.5 494.5,127.6 C476.8,163.5 436.4,183.6 398.5,175.5 Z M428.5,124.1 C430.2,123.2 432.1,122.5 432.8,122.5 C435.1,122.5 446.8,109.7 448,105.8 C448.7,103.7 449.8,101.4 450.4,100.6 C452,98.6 451.8,79.9 450.2,78.3 C449.6,77.7 449,76.3 449,75.4 C449,74.5 447,71 444.6,67.8 C432.3,51 408.7,47.9 392.7,60.9 C386,66.3 382.2,72.7 380,81.7 C378.4,88.4 378.4,89.7 379.8,96.4 C380.6,100.8 382.5,105.9 384.2,108.7 C387,113.2 396.5,122.5 398.3,122.5 C398.8,122.5 400.6,123.1 402.3,123.9 C404.1,124.7 406.4,125.6 407.5,125.9 C411.3,126.9 425.5,125.6 428.5,124.1 Z" id="Shape"></path>
                <path d="M543.4,148.5 C539,146.6 536,143 534.2,137.6 C533.4,135.2 533,120.8 533,90.1 C533,41.8 533.6,34.8 538.7,24.6 C544.4,13.1 556.6,4.8 571,2.5 C590.5,-0.6 606.4,4.2 620.3,17.4 C624.4,21.3 628,24.5 628.4,24.5 C628.7,24.5 629,23 629,21.3 C629,8.9 637.5,0.5 648.7,1.8 C654.2,2.4 657.7,4.9 660.7,10.1 L663,14 L663,75.3 C663,133.6 662.9,136.8 661.1,140.3 C655.2,151.8 641.5,153.9 632.4,144.6 C627.5,139.6 627.1,136.2 626.7,94.5 C626.3,58 626.1,55.7 624.1,50.4 C621.5,43.5 614.2,35.7 607.9,33.1 C605.5,32.1 602.7,30.9 601.8,30.4 C599,29 589.6,29.4 585.4,31.1 C580.6,33.1 578.4,35 575.4,39.6 C570.5,47.4 570,52.4 570,92.7 C570,140.1 569.3,143.6 558.5,148.6 C553.5,150.9 548.7,150.9 543.4,148.5 Z" id="Path"></path>
            </g>
        </g>
    </g>
</svg>