<?xml version="1.0" encoding="UTF-8"?>
<svg width="350px" height="106px" viewBox="0 0 350 106" version="1.1" xmlns="http://www.w3.org/2000/svg" xmlns:xlink="http://www.w3.org/1999/xlink">
    <title>Group 2</title>
    <defs>
        <rect id="path-1" x="0" y="0" width="314" height="78" rx="8"></rect>
        <filter x="-5.1%" y="-30.8%" width="116.6%" height="166.7%" filterUnits="objectBoundingBox" id="filter-2">
            <feOffset dx="10" dy="2" in="SourceAlpha" result="shadowOffsetOuter1"></feOffset>
            <feGaussianBlur stdDeviation="7" in="shadowOffsetOuter1" result="shadowBlurOuter1"></feGaussianBlur>
            <feComposite in="shadowBlurOuter1" in2="SourceAlpha" operator="out" result="shadowBlurOuter1"></feComposite>
            <feColorMatrix values="0 0 0 0 0   0 0 0 0 0   0 0 0 0 0  0 0 0 0.5 0" type="matrix" in="shadowBlurOuter1"></feColorMatrix>
        </filter>
        <radialGradient cx="19.25%" cy="99.4466191%" fx="19.25%" fy="99.4466191%" r="111.1392%" gradientTransform="translate(0.192500,0.994466),scale(0.980392,1.000000),translate(-0.192500,-0.994466)" id="radialGradient-3">
            <stop stop-color="#0099FF" offset="0%"></stop>
            <stop stop-color="#A033FF" offset="60.98%"></stop>
            <stop stop-color="#FF5280" offset="93.48%"></stop>
            <stop stop-color="#FF7061" offset="100%"></stop>
        </radialGradient>
    </defs>
    <g id="Page-1" stroke="none" stroke-width="1" fill="none" fill-rule="evenodd">
        <g id="Group-2" transform="translate(4.000000, 12.000000)">
            <g id="Group">
                <g id="Rectangle">
                    <use fill="black" fill-opacity="1" filter="url(#filter-2)" xlink:href="#path-1"></use>
                    <rect stroke="#FFFFFF" stroke-width="1" stroke-linejoin="square" fill="#FFFFFF" fill-rule="evenodd" x="0.5" y="0.5" width="313" height="77" rx="8"></rect>
                </g>
                <text id="Nous-contacter-sur" font-family="SFPro-Ultralight, SF Pro" font-size="20" font-weight="200" fill="#000000">
                    <tspan x="103" y="23">Nous contacter sur	</tspan>
                </text>
            </g>
            <g id="Facebook_Messenger_logo_2020" transform="translate(29.000000, 14.000000)" fill-rule="nonzero">
                <path d="M25.5,0 C11.137125,0 0,10.3178349 0,24.2478495 C0,31.5347032 3.04725,37.8341445 8.007,42.1837587 C8.421375,42.5462266 8.676375,43.0586811 8.689125,43.6086323 L8.829375,48.0582377 C8.874,49.4768619 10.36575,50.4017799 11.69175,49.8268309 L16.7535,47.6395248 C17.180625,47.4520415 17.665125,47.4207942 18.11775,47.5395337 C20.444625,48.1644783 22.918125,48.5019484 25.5,48.5019484 C39.862875,48.5019484 51,38.1841134 51,24.2540989 C51,10.3240844 39.862875,0 25.5,0 Z" id="Path" fill="url(#radialGradient-3)"></path>
                <path d="M10.1973907,31.2104929 L17.6822273,19.8045165 C18.873431,17.987148 21.4214605,17.5404547 23.2114512,18.8254628 L29.1674702,23.1149421 C29.7152965,23.5065636 30.4669652,23.5065636 31.0084215,23.108823 L39.0474545,17.2467386 C40.1176269,16.4634956 41.5190431,17.6995509 40.8055948,18.7948673 L33.3143881,30.1947246 C32.1231844,32.0120931 29.5751549,32.4587864 27.7851642,31.1737783 L21.8291453,26.884299 C21.2813189,26.4926775 20.5296502,26.4926775 19.9881939,26.8904181 L11.9491609,32.7525025 C10.8789885,33.5357455 9.47757233,32.3058093 10.1973907,31.2104929 Z" id="Path" fill="#FFFFFF"></path>
            </g>
            <g id="facebook-messenger-seeklogo.com" transform="translate(142.000000, 30.000000)" fill="#000000" fill-rule="nonzero">
                <g id="g4568">
                    <g id="g6">
                        <path d="M48.4698042,9.10864222 C47.6924723,9.10864222 47.13197,9.36540689 46.5638093,9.62650717 L46.5638093,15.5412474 C47.1080374,15.5932748 47.4201189,15.5932748 47.9365851,15.5932748 C49.8023732,15.5932748 50.0584524,14.7333781 50.0584524,13.5324132 L50.0584524,10.7075201 C50.0584524,9.8206463 49.7659956,9.10864222 48.4698042,9.10864222 L48.4698042,9.10864222 Z M36.0779655,8.78587988 C34.7836887,8.78587988 34.4878814,9.50125611 34.4878814,10.3871665 L34.4878814,10.8847985 L37.6666137,10.8847985 L37.6666137,10.3871665 C37.666135,9.50125611 37.3708063,8.78587988 36.0779655,8.78587988 Z M12.0716201,14.942451 C12.0716201,15.6428935 12.3999758,16.007085 13.1251346,16.007085 C13.9029451,16.007085 14.363409,15.7517656 14.931091,15.4897018 L14.931091,14.0864082 L13.2299595,14.0864082 C12.425823,14.0864082 12.0716201,14.2371913 12.0716201,14.942451 Z M60.5241928,9.10864222 C59.2275227,9.10864222 58.7780679,9.8206463 58.7780679,10.7075201 L58.7780679,13.9438147 C58.7780679,14.8330972 59.2275227,15.54751 60.5241928,15.54751 C61.8175123,15.54751 62.2703177,14.8330972 62.2703177,13.9438147 L62.2703177,10.7075201 C62.2703177,9.8206463 61.8175123,9.10864222 60.5241928,9.10864222 L60.5241928,9.10864222 Z M5.71702736,18.5708778 L1.90503758,18.5708778 L1.90503758,9.28447543 L0,9.28447543 L0,6.08431094 L1.90503758,6.08431094 L1.90503758,4.16315243 C1.90503758,1.55263137 2.98009145,0 6.03581003,0 L8.57984891,0 L8.57984891,3.20064623 L6.98976478,3.20064623 C5.80031292,3.20064623 5.72181389,3.64769615 5.72181389,4.48254262 L5.71702736,6.08431094 L8.59755906,6.08431094 L8.26058759,9.28447543 L5.71702736,9.28447543 L5.71702736,18.5708778 Z M18.7449954,18.5944828 L15.5681777,18.5944828 L15.4303258,17.78565 C13.9795296,18.5944828 12.6847741,18.7255147 11.8308578,18.7255147 C9.50077663,18.7255147 8.26058759,17.158913 8.26058759,14.9925515 C8.26058759,12.4364664 9.70755458,11.5240607 12.2965868,11.5240607 L14.9315697,11.5240607 L14.9315697,10.9715108 C14.9315697,9.66697289 14.7831874,9.2839937 12.789599,9.2839937 L9.52997444,9.2839937 L9.84875711,6.0838292 L13.4118475,6.0838292 C17.7862542,6.0838292 18.7449954,7.47459767 18.7449954,10.9970428 L18.7449954,18.5944828 Z M29.5486646,9.5190803 C27.5713505,9.17801204 27.0036684,9.10334314 26.0525856,9.10334314 C24.3437956,9.10334314 23.8273294,9.48295019 23.8273294,10.9430885 L23.8273294,13.705356 C23.8273294,15.165976 24.3437956,15.5470283 26.0525856,15.5470283 C27.0036684,15.5470283 27.5713505,15.4709142 29.5486646,15.1284007 L29.5486646,18.2495607 C27.8168993,18.6402476 26.688715,18.7428571 25.7352389,18.7428571 C21.6427586,18.7428571 20.0158182,16.5764956 20.0158182,13.4476279 L20.0158182,11.2061157 C20.0158182,8.07435753 21.6427586,5.90414211 25.7352389,5.90414211 C26.688715,5.90414211 27.8168993,6.00723337 29.5486646,6.39984725 L29.5486646,9.5190803 Z M41.4781248,13.4476279 L34.4878814,13.4476279 L34.4878814,13.705356 C34.4878814,15.165976 35.0048263,15.5470283 36.7131376,15.5470283 C38.249134,15.5470283 39.1863359,15.4709142 41.1598208,15.1284007 L41.1598208,18.2495607 C39.2566978,18.6402476 38.2649295,18.7428571 36.3972268,18.7428571 C32.304268,18.7428571 30.6763703,16.5764956 30.6763703,13.4476279 L30.6763703,10.8847985 C30.6763703,8.14709949 31.8840109,5.90414211 36.0779655,5.90414211 C40.2719201,5.90414211 41.4781248,8.12060408 41.4781248,10.8847985 L41.4781248,13.4476279 Z M53.8694849,13.5068812 C53.8694849,16.5312125 53.010782,18.7370763 47.8073489,18.7370763 C45.9286372,18.7370763 44.8263002,18.5708778 42.7527768,18.2495607 L42.7527768,0.961060992 L46.5633307,0.320835399 L46.5633307,6.36805276 C47.3866132,6.0602242 48.4525727,5.90366038 49.4228017,5.90366038 C53.2338341,5.90366038 53.8690062,7.62345373 53.8690062,10.3866847 L53.8690062,13.5068812 L53.8694849,13.5068812 Z M66.0851794,13.5723972 C66.0851794,16.181473 65.014912,18.7120261 60.5371164,18.7120261 C56.0569275,18.7120261 54.9665567,16.181473 54.9665567,13.5723972 L54.9665567,11.0534057 C54.9665567,8.44288468 56.0569275,5.9123316 60.5371164,5.9123316 C65.014912,5.9123316 66.0851794,8.44288468 66.0851794,11.0534057 L66.0851794,13.5723972 Z M78.2927368,13.5723972 C78.2927368,16.181473 77.2210335,18.7120261 72.7441952,18.7120261 C68.2640063,18.7120261 67.1736355,16.181473 67.1736355,13.5723972 L67.1736355,11.0534057 C67.1736355,8.44288468 68.2640063,5.9123316 72.7441952,5.9123316 C77.2215121,5.9123316 78.2927368,8.44288468 78.2927368,11.0534057 L78.2927368,13.5723972 Z M90.8205128,18.5708778 L86.6897404,18.5708778 L83.1965333,12.7014206 L83.1965333,18.5708778 L79.3845435,18.5708778 L79.3845435,0.961060992 L83.1965333,0.320835399 L83.1965333,11.6570195 L86.6897404,6.08431094 L90.8205128,6.08431094 L87.0066084,12.1662132 L90.8205128,18.5708778 Z M72.7312715,9.10864222 C71.4369947,9.10864222 70.9875399,9.8206463 70.9875399,10.7075201 L70.9875399,13.9438147 C70.9875399,14.8330972 71.4369947,15.54751 72.7312715,15.54751 C74.0241124,15.54751 74.4817043,14.8330972 74.4817043,13.9438147 L74.4817043,10.7075201 C74.4812257,9.8206463 74.0241124,9.10864222 72.7312715,9.10864222 L72.7312715,9.10864222 Z" id="path2"></path>
                    </g>
                    <g id="g35" transform="translate(1.179487, 23.428571)">
                        <polygon id="path17" points="0 0 1.14750997 0 6.64431339 12.8085467 6.683717 12.8085467 12.121415 0 13.4548908 0 13.4548908 13.757328 12.4938272 13.757328 12.4938272 0.94878124 12.4563457 0.94878124 7.09745489 13.757328 6.2305755 13.757328 0.812579297 0.94878124 0.961063628 0.94878124 0.961063628 13.757328 0 13.757328"></polygon>
                        <path d="M15.8575499,9.01342178 L15.8575499,8.97452175 C15.8575499,9.55754782 15.9988262,10.1154312 16.1574017,10.6472231 C16.3154967,11.179015 16.5802697,11.6453409 16.8902127,12.0471498 C17.1996752,12.449433 17.6038025,12.7672748 18.0713599,13.0006749 C18.5389174,13.2336007 19.0896068,13.3503008 19.7090123,13.3503008 C20.7229345,13.3503008 21.5302279,13.1187982 22.1227236,12.5936478 C22.7152194,12.0684974 23.1275157,11.3853749 23.3514435,10.4365936 L24.1001121,10.4365936 C23.8766648,11.3853749 23.3937303,12.4674599 22.6517892,13.0898604 C21.9098481,13.7122609 20.9281216,14.0078062 19.7066097,14.0078062 C18.9579411,14.0078062 18.3044179,13.8669122 17.7460399,13.6012535 C17.1876619,13.3355947 16.7215461,12.9688908 16.3472118,12.5082575 C15.9728775,12.0480986 15.6936885,11.5016006 15.5101254,10.8725586 C15.3260817,10.2439911 15.2343001,9.56561247 15.2343001,8.83932043 C15.2343001,8.13911987 15.3294454,7.46738275 15.5202165,6.82600663 C15.7105071,6.18368173 15.995943,5.61963129 16.3770047,5.1333809 C16.7575859,4.64713052 17.2342735,4.25813021 17.8056258,3.96637998 C18.3769782,3.67462974 19.0497227,3.52851743 19.825301,3.52851743 C20.534566,3.52851743 21.16166,3.65850046 21.7065831,3.91751774 C22.2515062,4.17700941 22.7080114,4.53043042 23.0760988,4.97730639 C23.4437056,5.42465674 23.7228946,5.94364008 23.9136657,6.53330762 C24.1039563,7.12344955 24.1991016,7.75533786 24.1991016,8.42944693 C24.1991016,8.49491284 24.1957379,8.64671783 24.1890104,8.73115936 C24.182283,8.81607529 24.1789193,9.01342178 24.1789193,9.01342178 L15.8575499,9.01342178 Z M23.4302507,8.06464054 C23.4038215,7.59024992 23.3115594,7.07980562 23.1534644,6.59402962 C22.9953694,6.10777923 22.761831,5.71783015 22.4523685,5.34827985 C22.1424255,4.97872956 21.7676106,4.70310861 21.3260019,4.48251697 C20.8843932,4.26192533 20.3812764,4.16135452 19.8147293,4.16135452 C19.2087787,4.16135452 18.6753884,4.27947778 18.2145584,4.50671089 C17.7537284,4.733944 17.3649782,5.03375887 17.0492688,5.40378355 C16.7330788,5.77333385 16.4894492,6.1296012 16.3183799,6.62249306 C16.1473105,7.11538491 16.0415935,7.59072431 16.0021899,8.06511493 L23.4302507,8.06511493 L23.4302507,8.06464054 Z" id="path19"></path>
                        <path d="M26.2870123,10.4365936 C26.3129611,10.9109843 26.4181975,11.3132675 26.6022412,11.6700093 C26.7858044,12.026751 27.0255897,12.330361 27.3215973,12.5832112 C27.6171244,12.8360614 27.9621462,13.0272408 28.3557018,13.1562751 C28.7497379,13.2862581 29.1764501,13.3507752 29.6363191,13.3507752 C29.9645223,13.3507752 30.3162716,13.321363 30.6901254,13.263013 C31.0644596,13.2046629 31.4123647,13.097925 31.734321,12.9423249 C32.0557968,12.7867248 32.3220114,12.5694539 32.5320038,12.2905122 C32.7419962,12.0120449 32.8472327,11.6586239 32.8472327,11.2307235 C32.8472327,10.6733146 32.6766439,10.2520557 32.3349858,9.96647254 C31.9933276,9.68136378 31.5632517,9.46124653 31.0442773,9.30517201 C30.5253029,9.14957189 29.966925,9.0229096 29.3696239,8.92565952 C28.7718424,8.82840944 28.2134644,8.68229713 27.6949706,8.48779698 C27.1759962,8.29329682 26.7459202,8.01815026 26.4042621,7.66140852 C26.062604,7.30514116 25.8920152,6.78283709 25.8920152,6.09544508 C25.8920152,5.60302761 26.0034986,5.19125656 26.2269459,4.8601319 C26.4499126,4.52995603 26.7358291,4.26714363 27.0837341,4.07264347 C27.4316391,3.87814332 27.822792,3.73914687 28.2557512,3.65423095 C28.6891909,3.57026381 29.1226306,3.52756865 29.5560703,3.52756865 C30.0812915,3.52756865 30.5738367,3.5859187 31.0337056,3.70261879 C31.4935745,3.81931888 31.8909744,4.00765196 32.2254245,4.26666924 C32.5598746,4.52568652 32.8232061,4.81838553 33.0134967,5.22019438 C33.2037873,5.62247763 33.2989326,6.16612928 33.2989326,6.6405199 L32.550264,6.6405199 C32.550264,6.16612928 32.4748205,5.8364278 32.3239335,5.51194462 C32.1730465,5.18746143 31.9625736,4.94457343 31.6934758,4.74295742 C31.4238974,4.54229019 31.1053048,4.40281935 30.737698,4.30556927 C30.3700912,4.20831919 29.9760551,4.16467525 29.5555897,4.16467525 C29.2139316,4.16467525 28.8693903,4.19930577 28.5214853,4.26429728 C28.1730997,4.3292888 27.8612346,4.4407706 27.5858898,4.59637072 C27.3100646,4.75149645 27.0832536,4.95358686 26.9059373,5.19979559 C26.7286211,5.44647871 26.6397227,5.74487041 26.6397227,6.0944963 C26.6397227,6.49677954 26.7382317,6.82126273 26.9352498,7.06747146 C27.1322678,7.31415458 27.3912745,7.51197547 27.7132308,7.66045973 C28.0347066,7.80941839 28.3960665,7.92943922 28.79683,8.02052222 C29.197113,8.11113082 29.6012403,8.20221382 30.0082507,8.29234804 C30.5070427,8.38343104 30.9765223,8.49064332 31.4166895,8.61351049 C31.8568566,8.73732644 32.2374378,8.90526072 32.5593941,9.11921089 C32.8808699,9.33316106 33.1341102,9.60878201 33.3181538,9.94559935 C33.501717,10.2828911 33.5939791,10.7107914 33.5939791,11.2293004 C33.5939791,11.7739008 33.4690408,12.2212512 33.2196448,12.5713514 C32.9697683,12.9214517 32.6550199,13.2032397 32.2739582,13.4171899 C31.8928965,13.6311401 31.4690674,13.7805731 31.0029516,13.8645403 C30.5363552,13.9489818 30.0803305,13.9912026 29.6334359,13.9912026 C29.0553561,13.9912026 28.5205242,13.9162488 28.0279791,13.7672902 C27.535434,13.6183315 27.1048775,13.3915728 26.7372707,13.0865396 C26.3691833,12.7815065 26.0803837,12.410533 25.8703913,11.9693497 C25.6599183,11.5286409 25.5484349,10.9090867 25.5354606,10.4346961 L26.2870123,10.4346961 L26.2870123,10.4365936 Z" id="path21"></path>
                        <path d="M35.7630997,10.4365936 C35.7890484,10.9109843 35.8942849,11.3132675 36.0783286,11.6700093 C36.2618917,12.026751 36.5016771,12.330361 36.7976847,12.5832112 C37.0932118,12.8360614 37.4382336,13.0272408 37.8317892,13.1562751 C38.2258253,13.2862581 38.6525375,13.3507752 39.1124065,13.3507752 C39.4406097,13.3507752 39.792359,13.321363 40.1662127,13.263013 C40.540547,13.2046629 40.888452,13.097925 41.2104084,12.9423249 C41.5318841,12.7867248 41.7980988,12.5694539 42.0080912,12.2905122 C42.2180836,12.0120449 42.32332,11.6586239 42.32332,11.2307235 C42.32332,10.6733146 42.1527312,10.2520557 41.8110731,9.96647254 C41.469415,9.68136378 41.039339,9.46124653 40.5203647,9.30517201 C40.0013903,9.14957189 39.4430123,9.0229096 38.8457113,8.92565952 C38.2479297,8.82840944 37.6895518,8.68229713 37.1710579,8.48779698 C36.6520836,8.29329682 36.2220076,8.01815026 35.8803495,7.66140852 C35.5386914,7.30514116 35.3681026,6.78283709 35.3681026,6.09544508 C35.3681026,5.60302761 35.4795859,5.19125656 35.7030332,4.8601319 C35.926,4.52995603 36.2119164,4.26714363 36.5598215,4.07264347 C36.9077265,3.87814332 37.2988794,3.73914687 37.7318386,3.65423095 C38.1652783,3.57026381 38.5987179,3.52756865 39.0321576,3.52756865 C39.5573789,3.52756865 40.049924,3.5859187 40.509793,3.70261879 C40.9696619,3.81931888 41.3670617,4.00765196 41.7015119,4.26666924 C42.035962,4.52568652 42.2992934,4.81838553 42.489584,5.22019438 C42.6817968,5.62342641 42.7769421,6.16707806 42.7769421,6.64146868 L42.0282735,6.64146868 C42.0282735,6.16707806 41.95283,5.83737658 41.801943,5.5128934 C41.651056,5.18841021 41.4405831,4.94552222 41.1714853,4.7439062 C40.9019069,4.54323897 40.5833143,4.40376813 40.2157075,4.30651805 C39.8481007,4.20926797 39.4540646,4.16562404 39.0335992,4.16562404 C38.6919411,4.16562404 38.3473998,4.20025455 37.9994948,4.26524607 C37.6511092,4.33023758 37.3392441,4.44171938 37.0638993,4.5973195 C36.7880741,4.75244523 36.5612631,4.95453564 36.3839468,5.20074437 C36.2066306,5.44742749 36.1177322,5.74581919 36.1177322,6.09544508 C36.1177322,6.49772832 36.2162412,6.82221151 36.4132593,7.06842024 C36.6102773,7.31510336 36.869284,7.51292425 37.1912403,7.66140852 C37.512716,7.81036717 37.874076,7.930388 38.2748395,8.021471 C38.6751225,8.11207961 39.0792498,8.2031626 39.4862602,8.29329682 C39.9850522,8.38437982 40.4545318,8.4915921 40.894699,8.61445927 C41.3348661,8.73827522 41.7154473,8.9062095 42.0374036,9.12015967 C42.3588794,9.33410984 42.6121197,9.60973079 42.7961633,9.94654813 C42.9797265,10.2838399 43.0719886,10.7117402 43.0719886,11.2302492 C43.0719886,11.7748496 42.9470503,12.2221999 42.6976543,12.5723002 C42.4477778,12.9224005 42.1330294,13.2041885 41.7519677,13.4181387 C41.370906,13.6320889 40.9470769,13.7815219 40.4809611,13.865489 C40.0143647,13.9499306 39.55834,13.9921513 39.1114454,13.9921513 C38.5333656,13.9921513 37.9985337,13.9171976 37.5059886,13.768239 C37.0134435,13.6192803 36.582887,13.3925216 36.2152802,13.0874884 C35.8471928,12.7824553 35.5583932,12.4114818 35.3484008,11.9702985 C35.1379278,11.5295896 35.0264444,10.9100355 35.0134701,10.4356449 L35.7630997,10.4356449 L35.7630997,10.4365936 Z" id="path23"></path>
                        <path d="M45.1699905,9.01342178 L45.1699905,8.97452175 C45.1699905,9.55754782 45.2444729,10.1154312 45.4025679,10.6472231 C45.5606629,11.179015 45.7917987,11.6453409 46.1017417,12.0471498 C46.4112042,12.449433 46.7985128,12.7672748 47.2660703,13.0006749 C47.7336277,13.2336007 48.2761481,13.3503008 48.8950731,13.3503008 C49.9089953,13.3503008 50.7124444,13.1187982 51.3049402,12.5936478 C51.8974359,12.0684974 52.3054074,11.3853749 52.5293352,10.4365936 L53.2780038,10.4365936 C53.0545565,11.3853749 52.571622,12.4674599 51.8296809,13.0898604 C51.0877398,13.7122609 50.1060133,14.0078062 48.8845014,14.0078062 C48.1358329,14.0078062 47.4823096,13.8669122 46.9239316,13.6012535 C46.3655537,13.3355947 45.8994378,12.9688908 45.5251035,12.5082575 C45.1507692,12.0480986 44.8715802,11.5016006 44.6880171,10.8725586 C44.5039734,10.2439911 44.4121918,9.56561247 44.4121918,8.83932043 C44.4121918,8.13911987 44.5073371,7.46738275 44.6981083,6.82600663 C44.8883989,6.18368173 45.1738348,5.61963129 45.5548965,5.1333809 C45.9354777,4.64713052 46.4121652,4.25813021 46.9835176,3.96637998 C47.5548699,3.67462974 48.2276144,3.52851743 49.0031928,3.52851743 C49.7124577,3.52851743 50.3395518,3.65850046 50.8844748,3.91751774 C51.4293979,4.17700941 51.8859031,4.53043042 52.2539905,4.97730639 C52.6215973,5.42465674 52.9007863,5.94364008 53.0915575,6.53330762 C53.2818481,7.12344955 53.3769934,7.75533786 53.3769934,8.42944693 C53.3769934,8.49491284 53.3736296,8.64671783 53.3669022,8.73115936 C53.3601747,8.81607529 53.356811,9.01342178 53.356811,9.01342178 L45.1699905,9.01342178 Z M52.6081425,8.06464054 C52.5817132,7.59024992 52.4894511,7.07980562 52.3313561,6.59402962 C52.1732612,6.10777923 51.9397227,5.71783015 51.6302602,5.34827985 C51.3203172,4.97872956 50.9455024,4.70310861 50.5038936,4.48251697 C50.0622849,4.26192533 49.5591681,4.16135452 48.9926211,4.16135452 C48.3866705,4.16135452 47.8532802,4.27947778 47.3924501,4.50671089 C46.9316201,4.733944 46.5428699,5.03375887 46.2271605,5.40378355 C45.9109706,5.77333385 45.6673409,6.1296012 45.4962716,6.62249306 C45.3252023,7.11538491 45.2194853,7.59072431 45.1800817,8.06511493 L52.6081425,8.06511493 L52.6081425,8.06464054 Z" id="path25"></path>
                        <path d="M55.2611586,3.79512496 L55.7416904,3.79512496 L55.7416904,5.69268744 L55.8983438,5.69268744 C56.029529,5.69268744 56.2169364,5.08736501 56.4596049,4.79514039 C56.7022735,4.50386455 56.9848262,4.30604366 57.3067825,4.09873496 C57.6282583,3.89142626 57.9795271,3.76191762 58.3605888,3.65802607 C58.74117,3.55460892 59.1289592,3.5152345 59.5229953,3.5152345 C60.1140494,3.5152345 60.6162051,3.59350895 61.0304236,3.73582613 C61.4441614,3.8790921 61.7819753,4.06979713 62.0448262,4.30319732 C62.3071966,4.5365975 62.5143058,4.80035869 62.6656733,5.09258331 C62.8165603,5.38433354 62.9251605,5.68035329 62.9905128,5.9782706 C63.0563457,6.27713669 63.0058898,6.56556618 63.0193447,6.84450787 C63.0323191,7.12344955 62.9496676,7.36681194 62.9496676,7.57412064 L62.9496676,13.757328 L62.4691358,13.757328 L62.4691358,7.43797053 C62.4691358,7.1917618 62.4047445,6.88056156 62.3653409,6.50436979 C62.3259373,6.12817803 62.1885052,5.76858994 61.9982146,5.42513113 C61.807924,5.08167232 61.5075916,4.78660136 61.120283,4.54039263 C60.7329744,4.29418389 60.1918955,4.17084233 59.5090598,4.17084233 C58.9309801,4.17084233 58.41585,4.27473388 57.9694359,4.48204258 C57.5225413,4.68982567 57.1405185,4.97778078 56.8252896,5.34733107 C56.5100608,5.71688136 56.21117,6.15759025 56.0473086,6.66993212 C55.8829668,7.18227399 55.7416904,7.7430037 55.7416904,8.35212126 L55.7416904,13.757328 L55.2611586,13.757328 L55.2611586,3.79512496 Z" id="path27"></path>
                        <path d="M73.5213675,3.79512496 L73.5213675,13.2336007 C73.5213675,13.7914841 73.5396277,14.3327638 73.4084425,14.8579142 C73.2777379,15.3830646 73.0932137,15.8465443 72.7722184,16.2488275 C72.4512232,16.6506364 72.0297968,16.9713244 71.4666135,17.2113661 C70.9029497,17.4514077 70.1994511,17.5714286 69.3349744,17.5714286 C68.7977398,17.5714286 68.2984672,17.5159249 67.826585,17.4058662 C67.3551833,17.2958076 66.9448091,17.1202831 66.5906572,16.8807158 C66.2365052,16.6411486 65.9529915,16.2094531 65.7367521,15.8138113 C65.5205128,15.4181695 65.4008604,15.1804998 65.3744311,14.2317186 L66.1230997,14.2317186 C66.1625033,14.7061092 66.2739867,15.162473 66.4580304,15.4736732 C66.6420741,15.7848735 66.8818594,16.0979713 67.1773865,16.2991129 C67.472433,16.4997802 67.8044805,16.6738815 68.1720874,16.7654389 C68.5396942,16.8555731 68.9337303,16.9153463 69.3541956,16.9153463 C70.0500057,16.9153463 70.6314492,16.8185707 71.0975651,16.6117363 C71.5641614,16.4039533 71.935132,16.1387689 72.2109573,15.8076442 C72.486302,15.4774684 72.7208015,15.1026998 72.8322849,14.6814409 C72.9437683,14.2597077 73.0403552,13.8375 73.0403552,13.4091253 L73.0403552,10.9109843 L72.901962,10.9109843 C72.5478101,11.8597655 72.0667977,12.3156549 71.4570028,12.7046552 C70.847208,13.0931811 70.1100722,13.3384411 69.2451149,13.3384411 C68.4978879,13.3384411 67.8530142,13.2373959 67.3090522,12.9850201 C66.7650902,12.7321699 66.3129098,12.3944037 65.9525109,11.9470534 C65.5921121,11.5001774 65.3230142,10.9840404 65.1466591,10.3882058 C64.9698234,9.79189679 64.880925,9.14672555 64.880925,8.4460506 C64.880925,7.78475008 64.9760703,7.15808007 65.1668414,6.56129667 C65.357132,5.96498766 65.6368015,5.44363237 66.0044084,4.99628201 C66.3720152,4.54940605 66.8285204,4.1926643 67.3734435,3.92700555 C67.9188471,3.66134681 68.5454606,3.52851743 69.2552061,3.52851743 C70.0562526,3.52851743 70.79483,3.65470534 71.4714188,4.05651419 C72.1475271,4.45879744 72.6304615,5.21877121 72.9197417,5.69316183 L73.0408357,5.69316183 L73.0408357,3.79559935 L73.5213675,3.79559935 L73.5213675,3.79512496 Z M69.2556866,4.17036794 C68.6382032,4.17036794 68.1033713,4.2937095 67.6497493,4.53991824 C67.1970883,4.78660136 66.8222735,5.11061015 66.5267464,5.51241901 C66.2312194,5.91470225 66.0077721,6.37154042 65.8568851,6.88388229 C65.7059981,7.39622416 65.6300741,7.91805384 65.6300741,8.44937134 C65.6300741,9.0328718 65.7055176,9.58696004 65.8568851,10.1125849 C66.0072915,10.6377353 66.2374663,11.0945734 66.5464482,11.4840481 C66.8549497,11.8730484 67.2364919,12.1814023 67.6891529,12.4076867 C68.1422944,12.6349198 68.6641519,12.7482991 69.2556866,12.7482991 C69.8726895,12.7482991 70.4113656,12.631599 70.8712346,12.3981989 C71.330623,12.1647987 71.7150484,11.8474313 72.0235499,11.4451481 C72.3320513,11.0433392 72.5617455,10.5860267 72.713113,10.0736848 C72.864,9.56181734 72.939924,9.02006325 72.939924,8.44937134 C72.939924,7.89196236 72.8644805,7.353529 72.713113,6.83549445 C72.5617455,6.31745989 72.3320513,5.85967294 72.0235499,5.46403116 C71.7145679,5.06838939 71.330623,4.7538684 70.8712346,4.52094261 C70.4113656,4.28706803 69.8726895,4.17036794 69.2556866,4.17036794 L69.2556866,4.17036794 Z" id="path29"></path>
                        <path d="M76.4045584,9.01342178 L76.4045584,8.97452175 C76.4045584,9.55754782 76.376207,10.1154312 76.5347825,10.6472231 C76.693358,11.179015 76.8725964,11.6453409 77.1825394,12.0471498 C77.4924824,12.449433 77.8538424,12.7672748 78.3213998,13.0006749 C78.7889573,13.2336007 79.3189839,13.3503008 79.9379088,13.3503008 C80.951831,13.3503008 81.7485527,13.1187982 82.341529,12.5936478 C82.9335442,12.0684974 83.3352688,11.3853749 83.5596771,10.4365936 L84.3083457,10.4365936 C84.0848984,11.3853749 83.6019639,12.4674599 82.8600228,13.0898604 C82.1180817,13.7122609 81.1363552,14.0078062 79.9148433,14.0078062 C79.1656942,14.0078062 78.5126515,13.8669122 77.9542735,13.6012535 C77.3958955,13.3355947 76.9297797,12.9688908 76.5559259,12.5082575 C76.1815916,12.0480986 75.9024027,11.5016006 75.718359,10.8725586 C75.5343153,10.2439911 75.4425337,9.56561247 75.4425337,8.83932043 C75.4425337,8.13911987 75.537679,7.46738275 75.7284501,6.82600663 C75.9187407,6.18368173 76.2041766,5.61963129 76.5857189,5.1333809 C76.9663001,4.64713052 77.4425071,4.25813021 78.0138594,3.96637998 C78.5852118,3.67462974 79.2584368,3.52851743 80.0335347,3.52851743 C80.7427996,3.52851743 81.3694131,3.65850046 81.9148167,3.91751774 C82.4597398,4.17700941 82.916245,4.53043042 83.2843324,4.97730639 C83.6519392,5.42465674 83.9311282,5.94364008 84.1214188,6.53330762 C84.3117094,7.12344955 84.4073352,7.75533786 84.4073352,8.42944693 C84.4073352,8.49491284 84.4039715,8.64671783 84.3972441,8.73115936 C84.3895556,8.81607529 84.3861918,9.01342178 84.3861918,9.01342178 L76.4045584,9.01342178 Z M83.6380038,8.06464054 C83.611094,7.59024992 83.5193124,7.07980562 83.361698,6.59402962 C83.203603,6.10777923 82.9700646,5.71783015 82.6601216,5.34827985 C82.3501785,4.97872956 81.9753637,4.70310861 81.5342355,4.48251697 C81.0926268,4.26192533 80.5890294,4.16135452 80.0224824,4.16135452 C79.4165318,4.16135452 78.883622,4.27947778 78.422792,4.50671089 C77.9614815,4.733944 77.5727312,5.03375887 77.2570218,5.40378355 C76.9408319,5.77333385 76.6972023,6.1296012 76.526133,6.62249306 C76.3550636,7.11538491 76.2493466,7.59072431 76.209943,8.06511493 L83.6380038,8.06511493 L83.6380038,8.06464054 Z" id="path31"></path>
                        <path d="M86.9762583,6.16707806 L86.9474264,6.16707806 C87.039208,5.69268744 87.2069136,5.44458115 87.4500627,5.15899799 C87.6932118,4.87388923 87.9882583,4.58071583 88.3366439,4.37293274 C88.6850294,4.16514965 89.0680133,3.98298365 89.4947255,3.87292502 C89.9219183,3.7628664 90.339981,3.69075902 90.8205128,3.70356757 L90.8205128,4.44314255 C90.339981,4.39143397 89.9810237,4.430334 89.4750237,4.55984264 C88.9695043,4.68935128 88.4889725,4.97493443 88.029584,5.41564332 C87.8450598,5.61014347 87.6855233,5.79847655 87.5476106,5.97921938 C87.409698,6.16138537 87.2953314,6.36205261 87.2030693,6.58216985 C87.1108072,6.8022871 87.0829364,7.04897023 87.0305584,7.32127044 C86.9781804,7.59357066 86.9762583,7.91805384 86.9762583,8.29377121 L86.9762583,13.757328 L86.0151947,13.757328 L86.0151947,3.79512496 L86.9762583,3.79512496 L86.9762583,6.16707806 Z" id="path33"></path>
                    </g>
                </g>
            </g>
        </g>
    </g>
</svg>